<svg xmlns="http://www.w3.org/2000/svg" viewBox="0 0 84.43 92.23"><defs><style>.e6eaef3a-667f-475d-9ec1-8dd89c2e284d{fill:#0051b1;}</style></defs><g id="baa454a0-c726-458d-81cc-e0d9f79f35c7" data-name="Layer 2"><g id="bf88b1ff-21f2-40d7-8906-a699650d5e24" data-name="Icons for Export"><g id="b96ecb73-83a1-40c8-a444-1bd51bc8109b" data-name="icon-nootropics"><path d="M50.85,92.23A1.84,1.84,0,0,1,49,90.45a13.67,13.67,0,0,1,.67-4.72,7.64,7.64,0,0,1,6.54-5.39,18.52,18.52,0,0,1,6,.32l.42.07,1,.17c1.32.23,2.57.44,3.82.55a10.09,10.09,0,0,0,2.69-.15,3.41,3.41,0,0,0,2.59-2.21,5.54,5.54,0,0,0,.3-4.58,4,4,0,0,1,.61-4.08,16.28,16.28,0,0,1,2.08-2l.21-.2h0a2.66,2.66,0,0,1-.85-.49l-2.3-1.6,2.42-1.51a2.77,2.77,0,0,1,.79-.42l.6-.16-.07-.08-.23-.28a4,4,0,0,1,1.34-6.52c.36-.18.71-.32,1-.44l.42-.17.33-.14c.25-.1.48-.2.65-.29.69-.39.79-.72.43-1.41a5.1,5.1,0,0,0-.45-.69l-2.32-2.94c-1.32-1.66-2.63-3.32-3.93-5a18.55,18.55,0,0,1-1.63-2.5,7,7,0,0,1-.79-3.82,59.63,59.63,0,0,0-.32-12.61,24.28,24.28,0,0,0-9.48-16,32.57,32.57,0,0,0-18.39-7.3C29.7,2.92,18.48,7.58,9.89,17.64A25.68,25.68,0,0,0,4,30.22a28,28,0,0,0,.62,11.35A81.81,81.81,0,0,0,9,53.74l.3.72c1.69,4,3.44,8.23,5,12.42a34,34,0,0,1,2.16,13.61,1.84,1.84,0,0,1-3.67-.19,30.46,30.46,0,0,0-1.94-12.14C9.3,64,7.57,59.89,5.9,55.88l-.31-.72A85.69,85.69,0,0,1,1.05,42.43,31.61,31.61,0,0,1,.38,29.61,29.25,29.25,0,0,1,7.09,15.25C16.48,4.26,28.71-.84,43.46.11a36.25,36.25,0,0,1,20.45,8.1A28.13,28.13,0,0,1,74.74,26.59,62.72,62.72,0,0,1,75.1,40a3.26,3.26,0,0,0,.33,1.83,15.88,15.88,0,0,0,1.32,2c1.29,1.67,2.6,3.32,3.91,5L83,51.72A9,9,0,0,1,83.8,53a4.46,4.46,0,0,1-1.9,6.34,8,8,0,0,1-1,.49l-.29.11a5.49,5.49,0,0,1-.51.21l-.68.29a1.18,1.18,0,0,0-.49.38,1.46,1.46,0,0,0,.32.55l.18.22a6,6,0,0,1,.72,1,3.34,3.34,0,0,1,.35,2.75,3.1,3.1,0,0,1-1,1.45A3.62,3.62,0,0,1,79.74,68a3.85,3.85,0,0,1-1.55,3.25,12.59,12.59,0,0,0-1.62,1.56c-.07.08-.12.14,0,.39a9.16,9.16,0,0,1-.4,7.49,7.11,7.11,0,0,1-5.27,4.26,13.58,13.58,0,0,1-3.66.2c-1.41-.12-2.79-.36-4.12-.59l-1-.17-.43-.07A15,15,0,0,0,56.79,84a4,4,0,0,0-3.61,2.88,9.92,9.92,0,0,0-.49,3.47,1.84,1.84,0,0,1-1.78,1.9Z"/><path class="e6eaef3a-667f-475d-9ec1-8dd89c2e284d" d="M41.8,47.35c0,.1.06.19.08.29a8.19,8.19,0,0,1-8.08,9.44,4.39,4.39,0,0,0-4.39,3.86c-.29,2-2.79,12-3.07,14a1.81,1.81,0,1,1-3.58-.53c.27-1.92,2.78-11.93,3-13.86A7.91,7.91,0,0,1,27.92,56a8,8,0,0,1,5.88-2.57,4.33,4.33,0,0,0,4.13-2.69A4.1,4.1,0,0,0,37.25,46a3.81,3.81,0,0,0-2.15-1.48,14.13,14.13,0,0,0-2-.22c-1.74,0-3.49,0-5.23,0l-6.88,0a1.87,1.87,0,0,0-1.73,1,1.89,1.89,0,0,0,1.69,2.85h8a2.76,2.76,0,0,1,.71.06,1.82,1.82,0,0,1-.57,3.56H20.84a5.53,5.53,0,0,1-5.24-7.24c-6.92-2.77-6.87-12.47-.43-15.27,0-.07,0-.13,0-.2A8.43,8.43,0,0,1,15,25.73a8.3,8.3,0,0,1,9.78-6.84c.22,0,.31,0,.4-.21a8.27,8.27,0,0,1,9.18-4.59,24.93,24.93,0,0,1,2.45.8,8.35,8.35,0,0,1,14,.95,8.14,8.14,0,0,1,7.92,2.07,8,8,0,0,1,2.49,6.81c0,.34,0,.5.35.66a7.55,7.55,0,0,1,4.55,5.33,8.91,8.91,0,0,1-1,6.64,8,8,0,0,1-7.33,4.43H51.3a.33.33,0,0,0-.37.25,7.81,7.81,0,0,1-7.21,5H41.77A2.33,2.33,0,0,0,41.8,47.35ZM52,38.16c2,0,4,0,6,0a4.67,4.67,0,0,0,3.59-1.9A4.93,4.93,0,0,0,62,30.4a4.82,4.82,0,0,0-3.53-2.16c-.26,0-.53,0-.78-.09a1.06,1.06,0,0,1-.85-1.55,11.9,11.9,0,0,0,.69-1.89,4.64,4.64,0,0,0-3.62-5.43,4.45,4.45,0,0,0-3.23.52c-.3.17-.59.35-.89.51a1,1,0,0,1-1.55-.69,6.82,6.82,0,0,0-1.57-3.07,4.43,4.43,0,0,0-6.54,0A4.87,4.87,0,0,0,39,18.43c-.12.37-.23.74-.36,1.1a1,1,0,0,1-1.77.39,13.66,13.66,0,0,0-1.77-1.64,4.64,4.64,0,0,0-7.07,3.17l-.15,1.09a1.06,1.06,0,0,1-1.68.84,10.41,10.41,0,0,0-1.72-.82A4.57,4.57,0,0,0,19,24.91a4.48,4.48,0,0,0,.27,4.7c.18.29.37.57.53.88A1,1,0,0,1,19.08,32a14,14,0,0,0-2.28.55,4.66,4.66,0,0,0-1.68,7.32,4.45,4.45,0,0,0,2.64,1.46,1.25,1.25,0,0,0,.68-.1,5.79,5.79,0,0,1,2.38-.54c3.46,0,6.93-.08,10.4-.06a34.22,34.22,0,0,1,4.17.28,7,7,0,0,1,4.29,2.27.75.75,0,0,0,.49.21c1.14,0,2.28,0,3.42,0A4.37,4.37,0,0,0,47.76,40a4.22,4.22,0,0,0-3.86-5c-.43,0-.86,0-1.3,0H30.53a1.2,1.2,0,0,0-.66.21A4.2,4.2,0,0,0,28.35,37a1.81,1.81,0,0,1-2.16.88,1.72,1.72,0,0,1-1.19-2,4.57,4.57,0,0,1,1.29-2.29,8.48,8.48,0,0,1,.66-.61c-.42-.84-.85-1.58-1.18-2.36a2.82,2.82,0,0,1-.12-2.1,1.78,1.78,0,0,1,1.81-1.19,1.69,1.69,0,0,1,1.62,1.37,5,5,0,0,0,1.26,2.5.7.7,0,0,0,.56.23H43.49a7.79,7.79,0,0,1,7.77,6.1c.06.21.09.42.14.68Z"/><path class="e6eaef3a-667f-475d-9ec1-8dd89c2e284d" d="M50.53,29.4a8.48,8.48,0,0,0,2,3.08,3.55,3.55,0,0,0,1.17.73,1.65,1.65,0,0,0,1.93-.71,1.9,1.9,0,0,0-.34-2.41,4.81,4.81,0,0,1-1.64-3.66c0-.32,0-.64,0-1A1,1,0,0,0,52,24.68c-.33.18-.65.39-1,.59A4.67,4.67,0,0,1,44.68,24a6.9,6.9,0,0,1-.82-1.76,1.13,1.13,0,0,0-2-.46,5.75,5.75,0,0,1-2,1.46,4.69,4.69,0,0,1-4.23-.41,1.81,1.81,0,0,0-2.61.9,1.6,1.6,0,0,0,.29,1.72,4.67,4.67,0,0,0,2.72,1.47,8.52,8.52,0,0,0,5.54-.54c.22-.09.28,0,.39.14a8.26,8.26,0,0,0,8.5,2.88Z"/></g></g></g></svg>