<svg xmlns="http://www.w3.org/2000/svg" viewBox="0 0 80.95 95.1"><defs><style>.efaf1599-eb83-40f3-8d75-1498856acd40{isolation:isolate;}.b5a7cc87-1c55-45c2-8ced-9340aa396250{fill:#c00;mix-blend-mode:multiply;}</style></defs><g class="efaf1599-eb83-40f3-8d75-1498856acd40"><g id="f2483344-45f3-4ca8-96f2-ee7d01fb1542" data-name="Layer 2"><g id="ac8a78a6-8846-4812-ad01-ff3c496a871e" data-name="Icons for Export"><g id="a187a9e0-b4e3-4cb3-834a-eab1903ff57f" data-name="icon-immune-boost"><polygon class="b5a7cc87-1c55-45c2-8ced-9340aa396250" points="58.89 42.23 45.79 42.23 45.79 29.13 35.26 29.13 35.26 42.23 22.05 42.23 22.05 52.87 35.26 52.87 35.26 65.97 45.79 65.97 45.79 52.87 58.89 52.87 58.89 42.23"/><path d="M80,18.33c-1.69-.29-3.41-.41-5.11-.64-8.42-1.14-16.48-3.44-23.46-8.44-3.85-2.76-7.35-6-11.31-9.25-.29.34-.71.9-1.2,1.4A52.06,52.06,0,0,1,19.16,14.6,70.32,70.32,0,0,1,1.53,18.21c-1.14.1-1.54.4-1.53,1.6A111.87,111.87,0,0,0,3.86,48.26,95.63,95.63,0,0,0,7.77,59.69C14.15,75,24.39,87,39.23,94.73a2.37,2.37,0,0,0,2.51,0A64.31,64.31,0,0,0,61,79.65C75.77,62.25,80.49,41.47,81,19.3A1.42,1.42,0,0,0,80,18.33Zm-3.5,5.05C75.82,37.43,73.06,51,66.58,63.57A62.38,62.38,0,0,1,42,89.58a2.63,2.63,0,0,1-3,0c-12.65-7.33-21.48-18-27-31.36A84.69,84.69,0,0,1,7.54,45.4a109.08,109.08,0,0,1-3-21.9c0-1.07.43-1.23,1.31-1.33,9.19-1.15,18-3.62,25.7-8.89,3.13-2.12,6-4.59,9.16-7,.65.6,1.37,1.24,2.07,1.89,9.18,8.34,20.16,12.52,32.31,14C75.82,22.26,76.56,22.18,76.5,23.38Z"/></g></g></g></g></svg>