<svg xmlns="http://www.w3.org/2000/svg" viewBox="0 0 91.51 83.6"><defs><style>.fa03abca-bd83-456e-b1ee-7c3d2ad0071c{fill:#17bc24;}</style></defs><g id="bfac15c1-d0b5-42d8-889d-523fb49295cf" data-name="Layer 2"><g id="af847788-839d-4f55-a2bd-4b0beb604fc7" data-name="Icons for Export"><g id="f5f232df-387d-4b6a-aa85-7ac835f36bae" data-name="icon-antiox"><path d="M10.64,37.71A35.8,35.8,0,0,1,13.15,28a5.23,5.23,0,0,0,1,.11h0a5,5,0,0,0,3.69-8.21c.26-.34.57-.72.87-1.06a33.14,33.14,0,0,1,5.63-5.29,4.87,4.87,0,0,0,3.15,1.14,4.93,4.93,0,0,0,3.92-1.94,4.87,4.87,0,0,0,1-3c0-.27,0-.49,0-.72.64-.27,1.29-.5,2-.72a36.21,36.21,0,0,1,6.88-1.56,5,5,0,0,0,9.17,0,35.36,35.36,0,0,1,5,1.06A31.73,31.73,0,0,1,59.31,9.2a2.73,2.73,0,0,0,0,.57,4.93,4.93,0,0,0,4.94,4.94,5.07,5.07,0,0,0,3-1,35.75,35.75,0,0,1,6.46,6.43,4.84,4.84,0,0,0-1,3,4.93,4.93,0,0,0,5,4.94,5.23,5.23,0,0,0,.68,0,34.34,34.34,0,0,1,2.47,9.54l3.19-.38a36.76,36.76,0,0,0-.68-4.07,34.5,34.5,0,0,0-2.13-6.54,4.82,4.82,0,0,0,1.41-3.46,4.94,4.94,0,0,0-4.94-4.94,4.69,4.69,0,0,0-1,.11.7.7,0,0,0-.27.08c-.42-.53-.84-1.1-1.29-1.6A37.1,37.1,0,0,0,69,11.1a4.8,4.8,0,0,0,.19-1.29,4.95,4.95,0,0,0-8.44-3.5,38.48,38.48,0,0,0-10-2.7,5,5,0,0,0-9.55,0A38.37,38.37,0,0,0,31,6.23,5,5,0,0,0,23.3,7.34a5.11,5.11,0,0,0-.68,2.51,4.76,4.76,0,0,0,.11,1,39.52,39.52,0,0,0-3.46,2.89,35.47,35.47,0,0,0-4.18,4.64,6.4,6.4,0,0,0-.87-.08,4.68,4.68,0,0,0-1.45.23,5,5,0,0,0-3.49,4.72,7.11,7.11,0,0,0,.07.91,5.12,5.12,0,0,0,1,2.24A40.82,40.82,0,0,0,8.17,33a41.38,41.38,0,0,0-.76,4.41l1.22.15Z"/><path d="M66.72,42.69,70,41.25A24.41,24.41,0,0,0,50,17.79a4.62,4.62,0,0,0-.3-.76,4.35,4.35,0,0,0-3.84-2.39,3.64,3.64,0,0,0-1,.11,3.18,3.18,0,0,0-.57.19,4.25,4.25,0,0,0-2.59,2.81c-.53.08-1,.19-1.52.31A24.39,24.39,0,0,0,21.37,41.32l3.27,1.56a10.86,10.86,0,0,1,0-1.14v-.19A21.18,21.18,0,0,1,42.09,21a4.27,4.27,0,0,0,7.56.07A21.21,21.21,0,0,1,66.76,41.67v0A7.79,7.79,0,0,1,66.72,42.69Z"/><circle cx="45.66" cy="41.74" r="9.73"/><path class="fa03abca-bd83-456e-b1ee-7c3d2ad0071c" d="M71.43,43.57C62.08,47.67,52.31,56,48.81,72.42a3.41,3.41,0,0,1-.15.69c0,.23-.07.45-.11.68s-.12.72-.19,1.07c-.19,1.06-.34,2.2-.46,3.34,0,.27,0,.5-.07.76a.63.63,0,0,1,0,.27c0,.19,0,.42,0,.61s0,.38,0,.6c0,.73-.11,1.45-.11,2.21.64-.46,1.25-1,1.9-1.41L51,80.1a13.61,13.61,0,0,0,1.18-.95l.3-.23.73-.57c.22-.19.49-.38.72-.57l1.44-1.18.73-.6.72-.61,1.44-1.22,1.41-1.25,1.41-1.26,1.4-1.25,1.37-1.29.69-.65,0,0,.61-.61,1.33-1.33c.91-.91,1.79-1.82,2.7-2.73s1.71-1.79,2.55-2.7a10.65,10.65,0,0,0,.83-1c.19-.23.39-.42.61-.65,1.22-1.33,2.4-2.7,3.54-4.07,1.63-1.94,3.19-3.88,4.71-5.93-.57,1.14-1.21,2.24-1.86,3.31S78.2,54.9,77.48,56c-1.45,2.09-3,4.11-4.6,6.08s-3.31,3.88-5.06,5.71-3.57,3.61-5.47,5.32c-.46.42-1,.84-1.45,1.25l-1.44,1.26L58,76.79l-.73.61c-.22.19-.49.38-.76.57l-1.4,1.11-.08.07c-.49.38-1,.76-1.52,1.14s-1,.76-1.56,1.1l-1.6,1.07c-.53.34-1.06.72-1.59,1.06,7-.07,41.74-2.47,42.77-44A49.22,49.22,0,0,0,71.43,43.57Z"/><path class="fa03abca-bd83-456e-b1ee-7c3d2ad0071c" d="M44,82.12a2.73,2.73,0,0,0,0-.57,7.14,7.14,0,0,0-.08-.92c-.07-.95-.15-1.9-.26-2.81,0-.3-.08-.57-.12-.87s0-.35-.07-.54,0-.34-.08-.53c-2.51-16.73-11.14-25.77-20-30.64a44.59,44.59,0,0,0-7.95-3.34,49,49,0,0,0-6.08-1.49,49.31,49.31,0,0,0-5.36-.68A34.07,34.07,0,0,0,0,39.61C.76,69.42,18.82,79.08,31.59,82.19c.27.08.5.12.76.19a7,7,0,0,0,.76.16c.46.07.88.19,1.3.26a43.09,43.09,0,0,0,4.41.61l1.48.11a7.48,7.48,0,0,0,.91,0c.34,0,.65,0,.91,0h.54l-.27-.15c-.15-.08-.27-.19-.42-.27l0,0-.45-.3-.76-.49-.31-.19c-.53-.35-1-.73-1.56-1.11a5.19,5.19,0,0,0-.49-.34,8.27,8.27,0,0,1-.72-.53c-.12-.08-.23-.19-.34-.27l-.08-.07-.42-.31-1-.76c-.26-.19-.49-.38-.76-.57l-.76-.61-1.48-1.18-1.44-1.25c-.5-.42-1-.84-1.45-1.25-1.4-1.26-2.77-2.55-4.14-3.88-.46-.46-.95-.91-1.41-1.41C22.54,66.8,20.83,64.9,19.2,63S16,59,14.52,56.91c-.72-1-1.44-2.09-2.13-3.15a37.3,37.3,0,0,1-1.9-3.31c1.52,2,3.16,3.95,4.79,5.85s3.35,3.77,5.06,5.59,3.5,3.61,5.28,5.36L27,68.55l.69.64.68.65,1.37,1.29,1.41,1.25c.45.42,1,.84,1.4,1.26L34,74.86l.15.15,1.29,1.06.73.61.72.61,1.48,1.18a.65.65,0,0,0,.15.11,3.46,3.46,0,0,0,.42.31c.08,0,.12.11.19.15l.23.19.53.38s.12.07.15.11c.46.34.88.69,1.33,1l.92.68.61.46s.07,0,.11.08l.42.3.42.3,0,0v-.07C44,82.46,44,82.31,44,82.12Z"/></g></g></g></svg>