<svg xmlns="http://www.w3.org/2000/svg" viewBox="0 0 90.35 87.59"><defs><style>.ad24aa27-da77-42f5-9ec1-94e9d0d88c2e{fill:#8900ff;}</style></defs><g id="bf70fbac-9ed3-4f37-8845-9a1b850f4856" data-name="Layer 2"><g id="aeee2ae2-924d-4fc7-abcf-b3232690931d" data-name="Icons for Export"><g id="a075d017-a354-41a9-9e7e-b26c0797a0e1" data-name="icon-energy-boost"><path class="ad24aa27-da77-42f5-9ec1-94e9d0d88c2e" d="M89.63,11.26l-3.34-.72a2.21,2.21,0,0,1-1.7-1.7L83.87,5.5a.88.88,0,0,0-1.67,0l-.72,3.34a2.24,2.24,0,0,1-1.71,1.7l-3.34.72a.88.88,0,0,0-.69.85.91.91,0,0,0,.69.85l3.34.72a2.23,2.23,0,0,1,1.71,1.71l.72,3.34a.86.86,0,0,0,.85.68.9.9,0,0,0,.85-.68l.72-3.34a2.22,2.22,0,0,1,1.7-1.71L89.66,13a.88.88,0,0,0,.69-.85A.94.94,0,0,0,89.63,11.26Z"/><path class="ad24aa27-da77-42f5-9ec1-94e9d0d88c2e" d="M26,75.28,21,74.2a3.29,3.29,0,0,1-2.59-2.59l-1.08-5.07a1.36,1.36,0,0,0-2.55,0l-1.08,5.07a3.3,3.3,0,0,1-2.59,2.59L6,75.28a1.31,1.31,0,0,0,0,2.55l5.08,1.08a3.36,3.36,0,0,1,2.59,2.59l1.08,5.08a1.31,1.31,0,0,0,2.55,0l1.08-5.08A3.34,3.34,0,0,1,21,78.91L26,77.83a1.31,1.31,0,0,0,0-2.55Z"/><path class="ad24aa27-da77-42f5-9ec1-94e9d0d88c2e" d="M6,58.87a.7.7,0,0,0,.68-.55l.59-2.79a1.82,1.82,0,0,1,1.41-1.4l2.78-.59a.71.71,0,0,0,.56-.69.74.74,0,0,0-.52-.69l-2.79-.59a1.81,1.81,0,0,1-1.4-1.41l-.59-2.78a.75.75,0,0,0-1.41,0l-.59,2.78a1.84,1.84,0,0,1-1.41,1.41l-2.78.59a.71.71,0,0,0,0,1.38l2.78.59a1.82,1.82,0,0,1,1.41,1.4l.59,2.79A.7.7,0,0,0,6,58.87Z"/><path d="M37.57,85.93a1.86,1.86,0,0,1-.72-.15,1.78,1.78,0,0,1-1-2l7.37-30.93-17.8-3.6a1.76,1.76,0,0,1-1.3-1.06,1.8,1.8,0,0,1,.17-1.67L54.8.79A1.79,1.79,0,0,1,58,2.19L50.45,34.41,68.25,38a1.78,1.78,0,0,1,1.12,2.75L39,85.16A1.79,1.79,0,0,1,37.57,85.93ZM28.71,46.25l17,3.43a1.8,1.8,0,0,1,1.15.79,1.78,1.78,0,0,1,.23,1.37L41.54,75.19,64.92,41l-17-3.43a1.77,1.77,0,0,1-1.38-2.15L52.3,11Z"/></g></g></g></svg>