<svg xmlns="http://www.w3.org/2000/svg" viewBox="0 0 91.13 91.1"><defs><style>.af56f50d-37a2-4d24-9bc8-9eee5123c924{fill:#960;}</style></defs><g id="a74281ac-24eb-43c9-9f3d-3011787d1f49" data-name="Layer 2"><g id="b6c62139-dd0f-4ace-99a1-c3099fcf62b8" data-name="Icons for Export"><g id="a7aa3a33-1aca-4f3d-94cf-aea1eeb0efc6" data-name="icon-adaptogen"><path d="M90,85.84a46.35,46.35,0,0,0-22.25-2.91c-1.43.17-2.83.37-4.22.59a44.51,44.51,0,0,1,.2-6.74l0-.5a3.35,3.35,0,0,1,3-2.26,13.23,13.23,0,0,1,4.2.27l.37.06.92.16c1.17.2,2.38.41,3.62.52a12.22,12.22,0,0,0,3.26-.18A6.43,6.43,0,0,0,83.86,71a8.19,8.19,0,0,0,.35-6.71.41.41,0,0,1,0-.13s0,0,0-.05a11,11,0,0,1,1.39-1.34,3.55,3.55,0,0,0,1.43-3,3.77,3.77,0,0,0-.22-1,2.92,2.92,0,0,0,.84-1.27A3.1,3.1,0,0,0,87.33,55a5.61,5.61,0,0,0-.65-.87c-.05-.07-.11-.13-.16-.19a1.47,1.47,0,0,1-.22-.35,1.14,1.14,0,0,1,.32-.21,4,4,0,0,1,.58-.25l.46-.19.24-.1a9.38,9.38,0,0,0,.94-.43,4.11,4.11,0,0,0,1.72-5.79,7.88,7.88,0,0,0-.72-1.12c-.68-.86-1.36-1.71-2-2.57C86.65,41.42,85.5,40,84.36,38.5a13,13,0,0,1-1.13-1.74A2.73,2.73,0,0,1,83,35.24a55.15,55.15,0,0,0-.32-11.76A24.82,24.82,0,0,0,73.07,7.24,31.93,31.93,0,0,0,55,.1C42-.74,31.26,3.75,23,13.44a25.87,25.87,0,0,0-5.93,12.68,27.75,27.75,0,0,0,.59,11.32,75.24,75.24,0,0,0,4,11.19l.17.39a1.78,1.78,0,1,0,3.28-1.37l-.16-.39A72.09,72.09,0,0,1,21.11,36.6a24.32,24.32,0,0,1-.54-9.89,22.35,22.35,0,0,1,5.12-11C33.2,7,43,2.89,54.81,3.65a28.44,28.44,0,0,1,16,6.38,21.09,21.09,0,0,1,8.25,14,52.23,52.23,0,0,1,.29,11,6.24,6.24,0,0,0,.71,3.45,15.87,15.87,0,0,0,1.44,2.21c1.15,1.48,2.3,2.94,3.46,4.41l2,2.56a4,4,0,0,1,.37.58c.28.53.23.72-.3,1a5.22,5.22,0,0,1-.56.24l-.29.13-.37.14c-.27.11-.58.24-.91.4a3.9,3.9,0,0,0-2.19,2.64,3.94,3.94,0,0,0,1,3.33l.1.12-.28.08a2.88,2.88,0,0,0-.74.38l-2.34,1.45,2.23,1.55a3.31,3.31,0,0,0,.57.37,14.55,14.55,0,0,0-1.83,1.79,3.63,3.63,0,0,0-.56,3.74,4.7,4.7,0,0,1-.26,3.89,2.84,2.84,0,0,1-2.16,1.84,8.47,8.47,0,0,1-2.31.14c-1.09-.1-2.18-.28-3.33-.48l-.94-.16-.36-.06a16.28,16.28,0,0,0-5.34-.28,6.89,6.89,0,0,0-5.88,4.84l0,.17-.1.86C60,78.22,60,78.3,60,84.13c-2.26.41-4.47.86-6.65,1.3h-.06C46.83,86.75,40.77,88,35,88a26,26,0,0,1-10.25-1.85,1.56,1.56,0,0,0-2,.83,1.54,1.54,0,0,0,.83,2A28.93,28.93,0,0,0,35,91.1c6,0,12.25-1.26,18.83-2.6l.05,0c4.55-.92,9.26-1.88,14.18-2.46a44.12,44.12,0,0,1,20.63,2.67A1.56,1.56,0,1,0,90,85.84Z"/><path class="af56f50d-37a2-4d24-9bc8-9eee5123c924" d="M58.51,70.76a27,27,0,0,0-11.78-3.38,28.06,28.06,0,0,0,1.57-8.75A1.35,1.35,0,0,0,47,57.31a27.6,27.6,0,0,0-10.22,2.15,27,27,0,0,0-6.24-10.27,1.33,1.33,0,0,0-1.87,0A26.86,26.86,0,0,0,22.4,59.46a27.57,27.57,0,0,0-10.21-2.15,1.34,1.34,0,0,0-1.32,1.32,27.72,27.72,0,0,0,1.57,8.75A27.06,27.06,0,0,0,.65,70.76a1.34,1.34,0,0,0-.48,1.8c.2.35,4.93,8.63,13.12,10.83A17.7,17.7,0,0,0,17.8,84a26.62,26.62,0,0,0,11.78-3.11A26.62,26.62,0,0,0,41.36,84a17.7,17.7,0,0,0,4.51-.57C54.07,81.19,58.8,72.91,59,72.56A1.33,1.33,0,0,0,58.51,70.76ZM45.56,60.05a25.63,25.63,0,0,1-1.78,7.49,15.18,15.18,0,0,0-2.05.41,17.71,17.71,0,0,0-5.1,2.32,17.93,17.93,0,0,0,.94-5.61,16.42,16.42,0,0,0-.2-2.54A25,25,0,0,1,45.56,60.05ZM21.79,62.12a16.42,16.42,0,0,0-.2,2.54,17.65,17.65,0,0,0,.95,5.61A17.77,17.77,0,0,0,17.43,68a14.87,14.87,0,0,0-2-.41,25.23,25.23,0,0,1-1.77-7.49A25.19,25.19,0,0,1,21.79,62.12ZM14,80.81c-5.4-1.45-9.2-6.17-10.74-8.39,2.44-1.15,8.1-3.34,13.49-1.89,4.22,1.13,7.46,4.26,9.41,6.64.37.51.73,1,1.05,1.36.1.13.19.26.27.38C25,80.06,19.38,82.25,14,80.81Zm15.85-3.92-.26.31c-.08-.09-.17-.2-.25-.31-.3-.41-.65-.87-1-1.36-1.8-2.5-4-6.47-4-10.87,0-5.58,3.58-10.48,5.32-12.53,1.75,2,5.32,6.95,5.32,12.53,0,4.4-2.22,8.37-4,10.87C30.49,76,30.14,76.48,29.84,76.89Zm15.34,3.92c-5.39,1.44-11-.75-13.49-1.9l.27-.38c.32-.39.68-.85,1-1.36,2-2.38,5.19-5.51,9.41-6.64,5.4-1.45,11.06.74,13.49,1.89C54.38,74.64,50.57,79.36,45.18,80.81Z"/></g></g></g></svg>