<svg xmlns="http://www.w3.org/2000/svg" viewBox="0 0 86.95 92.2"><defs><style>.ad2b2582-0ad5-4cb0-b382-60e4c79de9f6{fill:#c00;}</style></defs><g id="b8c22eea-4a78-4b44-ba77-72cb9c3db23c" data-name="Layer 2"><g id="b3e5110c-289d-4e8c-bb72-bdef1672db3b" data-name="Icons for Export"><g id="b01a334b-11bd-4e9c-97ed-046412e8dd5f" data-name="icon-anti-inflam"><path class="ad2b2582-0ad5-4cb0-b382-60e4c79de9f6" d="M30.88,92.2a1.77,1.77,0,0,1-1.17-.44A55.44,55.44,0,0,1,14.34,69.67C10.83,60.62,11.65,52,16.75,44.11A125.85,125.85,0,0,1,25,33.2c1.15-1.42,2.35-2.9,3.49-4.36a35.16,35.16,0,0,1,2.41-2.71C36.35,20.42,38,13.46,36,4.84c-.15-.63-.29-1.24-.42-1.88a2,2,0,0,1,.34-1.53l.29-.51A1.78,1.78,0,0,1,37.25.06a1.83,1.83,0,0,1,1.37.18C46.74,5,52.62,12.12,56.6,22c3.36,8.36,3,17,1.81,24.26,1-1.4,1.75-4,3-9.36a1.78,1.78,0,0,1,3.11-.74c.47.57.93,1.11,1.37,1.63,1,1.12,1.84,2.18,2.66,3.33a31.71,31.71,0,0,1,1.19,36.07A68.12,68.12,0,0,1,57.45,91.71a1.78,1.78,0,0,1-2.82-2.06c.11-.24.23-.48.34-.73.24-.5.47-1,.69-1.51,3.06-7,2.64-13.45-1.27-19.54a53.61,53.61,0,0,0-5.73-7.43,15.33,15.33,0,0,1-4.27-12.88c-7.07,5.29-9.06,13.07-6.29,24.21a1.77,1.77,0,0,1-2.48,2,7.3,7.3,0,0,1-4.16-4.14c-2.94,6.5-2.6,13.06,1,19.92a1.78,1.78,0,0,1-1.58,2.61ZM46.45,42.34a1.67,1.67,0,0,1,.9.25,1.75,1.75,0,0,1,.88,1.53c0,.21,0,.41,0,.61a6.64,6.64,0,0,1-.09,1.91A11.74,11.74,0,0,0,51.27,58,55.94,55.94,0,0,1,57.38,66a22.57,22.57,0,0,1,3.33,17.38,59.67,59.67,0,0,0,5.95-8c6.45-10.42,6.07-22.13-1.06-32.12-.48-.68-1-1.35-1.58-2-1.73,6.9-3.22,9.07-7.55,10.39a1.78,1.78,0,0,1-1.71-.39,1.75,1.75,0,0,1-.55-1.67c1.58-7.88,2.71-17.15-.91-26.15C50.11,15.42,45.64,9.45,39.67,5.17c1.92,9.25-.18,17.13-6.24,23.43A30.88,30.88,0,0,0,31.25,31c-1.16,1.49-2.36,3-3.53,4.41a126.55,126.55,0,0,0-8,10.6c-4.45,6.9-5.15,14.42-2.08,22.34a52.21,52.21,0,0,0,8.71,14.89C25,76.49,26.51,69.91,31,63.33a1.76,1.76,0,0,1,2-.71,1.58,1.58,0,0,1,.44.19c.1-9,4.18-15.76,12.21-20.24A1.76,1.76,0,0,1,46.45,42.34Z"/><path d="M84.72,89.57a2.18,2.18,0,0,1-1.57-.65L.65,6.43A2.23,2.23,0,0,1,3.8,3.28l82.5,82.5a2.22,2.22,0,0,1-1.58,3.79Z"/></g></g></g></svg>