<svg xmlns="http://www.w3.org/2000/svg" viewBox="0 0 72.15 97.02"><defs><style>.b0a8956d-611d-4578-a642-762063090c59{fill:#c00;}</style></defs><g id="a829093d-c40d-4aa8-8a7b-36ff222226a3" data-name="Layer 2"><g id="ed95317e-c8eb-48e9-90ef-8cdd028b9b35" data-name="Icons for Export"><g id="b91455be-307d-48b4-8351-4e2aa9a00b5d" data-name="icon-gut-health"><path d="M26.05,54.8c-2,0-3.84,0-5.68,0-5.2,0-9.17,3.84-9.17,8.79a8.89,8.89,0,0,0,9.15,8.83c9.59,0,19.18,0,28.77,0a3.41,3.41,0,0,1,1.44.08,1.78,1.78,0,0,1,.85,1.16c0,.34-.39.87-.74,1.06a3.21,3.21,0,0,1-1.43.16q-4.83,0-9.64,0c-5.34,0-8.33,2.93-8.33,8.27q0,6,0,12c0,.93-.06,1.88-1.28,1.88s-1.24-1-1.24-1.9c0-4.09.05-8.18,0-12.27A10.63,10.63,0,0,1,31.87,75c-.64,0-1-.1-1.45-.1H20.63c-5.06,0-8.91-2.12-10.93-6.81s-1-8.95,2.47-12.63a5.76,5.76,0,0,0,.37-.48C4.65,54.51-.17,50.83,0,42.53A10.47,10.47,0,0,1,2,37a12.85,12.85,0,0,1,4.65-3.8c1.7-.85,3.77-1,5.75-1.4a11.6,11.6,0,0,1-3.53-6.42A11.27,11.27,0,0,1,20.08,12.09c2.83-.05,5.65,0,8.47,0,3.65,0,5.8-2.19,5.83-5.84,0-1.55,0-3.11,0-4.67,0-.89.27-1.58,1.29-1.56s1.2.66,1.2,1.5c0,1.9,0,3.8,0,5.69a7.77,7.77,0,0,1-7.66,7.35c-2.92,0-5.84,0-8.76,0-5.27,0-9.28,3.91-9.23,8.9s4,8.72,9.23,8.73q14.61,0,29.21,0c.44,0,1-.14,1.29.06a2.23,2.23,0,0,1,1,1.28c0,.34-.61.87-1.06,1.1s-.85.06-1.29.06c-12.81,0-25.61,0-38.42,0a8.4,8.4,0,0,0-7.94,5,8.3,8.3,0,0,0,.92,9.08,8.64,8.64,0,0,0,7.34,3.53l11.39,0C25.15,52.31,25.15,52.31,26.05,54.8Z"/><path d="M46.21,42.28c2,0,3.92,0,5.85,0a8.87,8.87,0,0,0,8.63-6.77,8.47,8.47,0,0,0-4.27-9.66,12.21,12.21,0,0,0-5.17-1.16c-9-.11-18.11-.06-27.16-.06H22.77c-.93,0-2.05.1-2.06-1.22s1.11-1.22,2-1.22c3.41,0,6.82,0,10.23,0,4.83,0,7.92-3.12,7.94-8,0-3.84,0-7.69,0-11.54,0-.43-.13-1,.06-1.29A7.21,7.21,0,0,1,42.16,0a10.76,10.76,0,0,1,1.19,1.34c.16.24,0,.66,0,1,0,3.31-.08,6.63,0,9.94.11,3.55-.22,6.91-3.2,9.79.79.05,1.24.1,1.69.1,3.26,0,6.52,0,9.79,0,5,0,8.77,2.19,10.78,6.79s1.05,8.76-2.29,12.43c-.13.14-.27.28-.39.43s0,.09-.06.27c8.23.52,13.07,4.53,12.34,13.18-.49,5.84-4.91,9-12.46,9.65a8.39,8.39,0,0,0,.57.78c3.33,3.67,4.26,7.88,2.29,12.43s-5.66,6.78-10.63,6.81c-2.77,0-5.55,0-8.32,0a5.46,5.46,0,0,0-5.76,5.78c0,1.61,0,3.22,0,4.82,0,.85-.31,1.46-1.23,1.47s-1.27-.6-1.27-1.43c0-1.9-.1-3.81,0-5.7a7.83,7.83,0,0,1,7.91-7.43c2.82,0,5.65,0,8.47,0,5.32,0,9.25-3.76,9.25-8.82s-4-8.8-9.29-8.81c-9.74,0-19.48,0-29.21,0-.39,0-.85.12-1.15,0-.46-.25-1.15-.74-1.11-1.05a2.14,2.14,0,0,1,1-1.3,3.06,3.06,0,0,1,1.43-.09q19,0,38,0c5.14,0,9-3.65,9.15-8.46A8.79,8.79,0,0,0,61,44.72c-3.95-.06-7.89,0-11.83,0C46.93,44.7,46.93,44.7,46.21,42.28Z"/><path class="b0a8956d-611d-4578-a642-762063090c59" d="M45.29,48.53a9.23,9.23,0,1,1-18.45-.13,9.23,9.23,0,0,1,18.45.13Zm-9.28,7c4.12-.25,6.89-2.84,7.09-7a7,7,0,1,0-14,0A7.18,7.18,0,0,0,36,55.55Z"/><path d="M46.11,54.79c.93-2.48.93-2.48,3.24-2.48,3.06,0,6.12,0,9.18,0,.88,0,1.61.18,1.64,1.19s-.65,1.29-1.55,1.29Z"/><path d="M25.93,42.39c-.27,2-1.35,2.44-3.13,2.36-3.39-.15-6.8,0-10.19,0-.88,0-1.8,0-1.82-1.16s.92-1.27,1.86-1.27l12.82,0A2.31,2.31,0,0,1,25.93,42.39Z"/><path class="b0a8956d-611d-4578-a642-762063090c59" d="M32.87,48.51a3,3,0,0,1,3.29-3.23,3.22,3.22,0,0,1,3.25,3.23A3.5,3.5,0,0,1,36,51.84,3.18,3.18,0,0,1,32.87,48.51Z"/></g></g></g></svg>