<svg xmlns="http://www.w3.org/2000/svg" viewBox="0 0 92.84 78.21"><defs><style>.a19dae49-8eff-45f2-b212-f72dd1c4d29a{fill:#c00;}</style></defs><g id="f7e2faab-da64-400c-bac9-02496ae2a4ad" data-name="Layer 2"><g id="feca6ac4-e62c-45db-9f8e-db80d2616c0a" data-name="Icons for Export"><g id="a20cf932-25ca-417e-bba0-c4d44238e425" data-name="icon-heart-health"><path class="a19dae49-8eff-45f2-b212-f72dd1c4d29a" d="M46.4,11.77c1.66-1.62,3.22-3,4.66-4.57A21.89,21.89,0,0,1,64.13.37C78.65-1.75,89.75,7.65,91.59,20.05A24.13,24.13,0,0,1,89.83,33.6a11.44,11.44,0,0,1-1.07,1.9,2,2,0,0,1-2.47.51,1.84,1.84,0,0,1-.94-2.16,18.94,18.94,0,0,1,.87-2.27,18,18,0,0,0,.91-13.45c-2.67-8-8.25-12.78-16.54-14.08A17.49,17.49,0,0,0,56.24,8.11c-2.54,2.13-4.89,4.5-7.32,6.76-.49.45-1,.88-1.49,1.3a1.41,1.41,0,0,1-2.16,0c-1.35-1.22-2.66-2.48-4-3.72-1.5-1.39-2.94-2.85-4.51-4.17A18.68,18.68,0,0,0,14.52,6.84,19.7,19.7,0,0,0,5.68,18.21a19,19,0,0,0,.93,13.36c.34.73.66,1.48.94,2.24a1.93,1.93,0,0,1-.85,2.4,1.88,1.88,0,0,1-2.46-.44,8.53,8.53,0,0,1-1.11-1.89C-.42,25.54.19,17.51,5.25,10,9,4.39,14.51,1.29,21.16.29A23.47,23.47,0,0,1,38.92,4.68a58,58,0,0,1,5.3,4.76C45,10.15,45.64,11,46.4,11.77Z"/><path d="M50.69,51.06c.72-1.69,1.37-3.23,2-4.77,1-2.17,2-4.33,2.9-6.51a1.69,1.69,0,0,1,1.75-1.11c2.78,0,5.57-.13,8.35-.13,7.58,0,15.16,0,22.73.05,1,0,2,0,3,.08a1.33,1.33,0,0,1,.85.46,2.07,2.07,0,0,1,.45,2.06,1.67,1.67,0,0,1-1.66,1.19c-2.9.07-5.8.18-8.7.22q-11.56.12-23.13.19a.75.75,0,0,0-.8.56q-2.9,6.76-5.85,13.51c-.15.35-.35.68-.51,1A1.69,1.69,0,0,1,50.31,59a1.63,1.63,0,0,1-1.58-1.14c-.84-2.16-1.71-4.31-2.52-6.47-2.53-6.69-5-13.38-7.55-20.07-.13-.36-.3-.7-.52-1.2l-2.22,5.16c-1,2.4-2.08,4.78-3.07,7.2a2.08,2.08,0,0,1-2.23,1.45c-9.65,0-19.29,0-28.94.1C1,44,.75,43.54.45,43.15a1.83,1.83,0,0,1,1.22-3c2.58-.17,5.17-.25,7.76-.26,6.48,0,13,0,19.43,0a.84.84,0,0,0,.93-.61c2.2-5.17,4.43-10.33,6.65-15.49.06-.15.13-.28.2-.42a1.82,1.82,0,0,1,2.91-.7,3,3,0,0,1,1,1.25c1.83,4.95,3.59,9.92,5.42,14.86,1.44,3.88,3,7.73,4.42,11.59C50.44,50.51,50.53,50.7,50.69,51.06Z"/><path class="a19dae49-8eff-45f2-b212-f72dd1c4d29a" d="M46.42,73.26c1.9-1.91,3.75-3.81,5.63-5.67q10-10,20.06-19.88a16,16,0,0,1,2-1.67,1.83,1.83,0,0,1,2,0,1.53,1.53,0,0,1,.79,1.61,2.12,2.12,0,0,1-.5,1.13c-1.2,1.36-2.42,2.72-3.7,4Q61.43,64.13,50.07,75.41c-.81.8-1.67,1.56-2.55,2.28a1.53,1.53,0,0,1-2.3,0c-1.13-1-2.24-2-3.29-3q-11.52-11.51-23-23a25.33,25.33,0,0,1-1.88-2.13,1.65,1.65,0,0,1,.23-2.33A1.62,1.62,0,0,1,19.62,47c1.59,1.41,3.17,2.84,4.68,4.33Q35.17,62.07,46,72.88C46.11,73,46.23,73.09,46.42,73.26Z"/></g></g></g></svg>