<?xml version="1.0" encoding="UTF-8"?> <svg xmlns="http://www.w3.org/2000/svg" id="Layer_1" data-name="Layer 1" viewBox="0 0 41.38 41.38"><defs><style>.cls-1{fill:#396886;}</style></defs><path class="cls-1" d="M25.36,27.84l-.71.6c-.06.08-.1.16-.15.24a5.43,5.43,0,0,1-1.39,1.49l1.19,1.19a2.51,2.51,0,0,0,1.22.8H26a1.6,1.6,0,0,0,1-.66,5.74,5.74,0,0,0,.33-.71v-.5a2.56,2.56,0,0,0-.81-1.23Z"></path><path class="cls-1" d="M12.42,26.37a7.58,7.58,0,0,0,6.46-1.06,1.93,1.93,0,0,0,.61,1l2,2a4.48,4.48,0,0,0,1.28-1.31,10,10,0,0,0,.68-1.3L21.76,24a2,2,0,0,0-1-.6A7.55,7.55,0,0,0,22,17.62a7.4,7.4,0,0,0-3.25-4.93A7.64,7.64,0,0,0,8.17,23.28,7.39,7.39,0,0,0,12.42,26.37Zm2.1-13A5.7,5.7,0,1,1,8.84,19,5.67,5.67,0,0,1,14.52,13.34Z"></path><path class="cls-1" d="M26.49,15.58a6,6,0,0,1,3.17-1.78s-3.5,1.79-4.19,5.05c-.11.51-.15,1-.19,1.29a3,3,0,0,0,0,.92s0,.06,0,.09c0,.19-.06.4-.1.61a20,20,0,0,1-1.32,4.59,11.43,11.43,0,0,1-.68,1.3A4.32,4.32,0,0,1,21.89,29a5.18,5.18,0,0,1-2.28.82l-2.12.28a.46.46,0,0,0-.4.52.46.46,0,0,0,.46.41h.06l2.12-.28a6,6,0,0,0,2.83-1.08A5.29,5.29,0,0,0,24,28.14c.05-.08.1-.16.14-.24l.71-.6c.57-.48,1.28-1.08,2-1.63h0l.06-.06c.58-.47,1.13-.9,1.55-1.2A3.85,3.85,0,0,1,29.51,24a3.11,3.11,0,0,1,2.17.18,5.82,5.82,0,0,0-3.95,1.27c-1.05.92-1,1.23-1,1.24a1.51,1.51,0,0,1,.21.23,2.17,2.17,0,0,1,.3.23,2.39,2.39,0,0,1,.32.16h0a3.48,3.48,0,0,0,3.26-.49c1.81-1.19,2.33-2.42,3.26-1.63,0,0-.1-2-2.66-2.65a3.85,3.85,0,0,0-4.29,1.74s0,0,0,0a7,7,0,0,1-2,2l-.31.24a22.28,22.28,0,0,0,1.4-5.26l.28,0c.2,0,.39-.08.6-.11,1.32-.37,2.7-.56,4-3.56s.82-4.88,2.89-4.83c0,0-2.15-2.17-6.32-.59S22.45,18,24.37,20A8.41,8.41,0,0,1,26.49,15.58Z"></path><path class="cls-1" d="M20.69,41.38A20.69,20.69,0,1,0,0,20.69,20.7,20.7,0,0,0,20.69,41.38Zm0-39.94A19.25,19.25,0,1,1,1.44,20.69,19.27,19.27,0,0,1,20.69,1.44Z"></path></svg> 