<?xml version="1.0" encoding="UTF-8"?> <svg xmlns="http://www.w3.org/2000/svg" id="Layer_1" data-name="Layer 1" viewBox="0 0 41.38 41.38"><defs><style>.cls-1{fill:#396886;}</style></defs><path class="cls-1" d="M20.69,0A20.69,20.69,0,1,0,41.38,20.69,20.69,20.69,0,0,0,20.69,0Zm0,39.94A19.25,19.25,0,1,1,39.94,20.69,19.28,19.28,0,0,1,20.69,39.94Z"></path><path class="cls-1" d="M16.15,11.2v5.11l-5.74,3.32v8.43l7.3,4.21L25,28.06V23l5.74-3.32V11.2L23.45,7Zm7.23,15.92-5.67,3.27L12,27.12V20.57l4.11-2.37v1.43l7.23,4.17Zm0-5.2-5.6-3.23V17.34l5.6,3.23Zm5.74-3.23h0L25,21.06V19.63l-7.23-4.17V12.14l5.67-3.27,5.67,3.27Z"></path><path class="cls-1" d="M21,16.1a.94.94,0,0,1-.92-1h0a.93.93,0,0,1,.92-1,1.09,1.09,0,0,1,.78.35l.32-.37a1.49,1.49,0,0,0-1.1-.43,1.42,1.42,0,0,0-1.44,1.45h0A1.4,1.4,0,0,0,21,16.55a1.45,1.45,0,0,0,1.14-.49l-.32-.32A1.11,1.11,0,0,1,21,16.1Z"></path><path class="cls-1" d="M22.4,16.5h1.3c.62,0,1-.26,1-.76h0a.68.68,0,0,0-.55-.68.67.67,0,0,0,.4-.62h0a.67.67,0,0,0-.19-.47,1,1,0,0,0-.73-.24H22.4Zm.49-2.36h.7c.32,0,.5.14.5.36h0c0,.25-.22.38-.53.38h-.67Zm0,1.16h.78c.38,0,.57.14.57.38h0c0,.25-.2.38-.54.38h-.81Z"></path><path class="cls-1" d="M27.63,15.11h0a1.39,1.39,0,0,0-1.49-1.39H25.09V16.5h1.05A1.4,1.4,0,0,0,27.63,15.11Zm-2-1h.55a.92.92,0,0,1,1,1h0a.91.91,0,0,1-1,.95h-.55Z"></path><path class="cls-1" d="M14.9,25.22a.94.94,0,0,1-.93-1h0a.94.94,0,0,1,.93-1,1.09,1.09,0,0,1,.78.35l.32-.36a1.45,1.45,0,0,0-1.1-.44,1.41,1.41,0,0,0-1.44,1.45h0a1.4,1.4,0,0,0,1.42,1.43A1.48,1.48,0,0,0,16,25.18l-.32-.32A1.11,1.11,0,0,1,14.9,25.22Z"></path><path class="cls-1" d="M18.62,24.86h0a.69.69,0,0,0-.56-.68.67.67,0,0,0,.4-.62h0a.62.62,0,0,0-.18-.46,1,1,0,0,0-.73-.25H16.29v2.8h1.3C18.21,25.63,18.62,25.36,18.62,24.86Zm-1.85-1.6h.71c.32,0,.49.14.49.36h0c0,.25-.21.38-.52.38h-.68Zm0,1.16h.78c.39,0,.58.14.58.38h0c0,.25-.2.38-.54.38h-.82Z"></path><path class="cls-1" d="M20.27,25.67a1.79,1.79,0,0,0,1.16-.43V24.06H20.24v.43H21V25a1.13,1.13,0,0,1-.68.22.94.94,0,0,1-1-1h0a1,1,0,0,1,.91-1,1.09,1.09,0,0,1,.78.3l.32-.37a1.54,1.54,0,0,0-1.08-.38,1.42,1.42,0,0,0-1.44,1.45h0A1.38,1.38,0,0,0,20.27,25.67Z"></path></svg> 