<?xml version="1.0" encoding="UTF-8"?> <svg xmlns="http://www.w3.org/2000/svg" id="Layer_1" data-name="Layer 1" viewBox="0 0 41.38 41.38"><defs><style>.cls-1{fill:#396886;}</style></defs><path class="cls-1" d="M20.69,41.38A20.69,20.69,0,1,0,0,20.69,20.7,20.7,0,0,0,20.69,41.38Zm0-39.94A19.25,19.25,0,1,1,1.44,20.69,19.27,19.27,0,0,1,20.69,1.44Z"></path><path class="cls-1" d="M10.38,32h.07L13,31.61a7.34,7.34,0,0,0,3.44-1.31,6.54,6.54,0,0,0,1.69-1.81c.06-.1.12-.19.17-.29l.86-.73c.69-.59,1.55-1.31,2.38-2v0a.36.36,0,0,1,.07-.07c.7-.57,1.37-1.09,1.88-1.46a4.6,4.6,0,0,1,1.39-.53,3.82,3.82,0,0,1,2.64.21,7,7,0,0,0-4.79,1.55c-1.28,1.12-1.22,1.49-1.21,1.51a3.45,3.45,0,0,1,.26.28,3.44,3.44,0,0,1,.36.28c.13.06.27.12.39.19l0,0a4.21,4.21,0,0,0,4-.6c2.2-1.44,2.83-2.94,4-2a3.94,3.94,0,0,0-3.27-3.23A4.7,4.7,0,0,0,22,23.75s0,0,0,0a8.35,8.35,0,0,1-2.47,2.44l-.37.29a26.76,26.76,0,0,0,1.7-6.4l.34,0c.25,0,.47-.09.73-.14,1.61-.45,3.28-.68,4.89-4.33s1-5.93,3.51-5.86c0,0-2.61-2.63-7.67-.71s-6.34,7.12-4,9.57a10.27,10.27,0,0,1,2.57-5.4,7.2,7.2,0,0,1,3.86-2.16S20.83,13.23,20,17.18a14.88,14.88,0,0,0-.23,1.57,3.94,3.94,0,0,0,0,1.12s0,.07,0,.11q0,.35-.12.75A24.6,24.6,0,0,1,18,26.31a13.12,13.12,0,0,1-.83,1.58,5.44,5.44,0,0,1-1.54,1.59,6.22,6.22,0,0,1-2.77,1l-2.57.34A.57.57,0,0,0,10.38,32Z"></path></svg> 