<?xml version="1.0" encoding="UTF-8"?> <svg xmlns="http://www.w3.org/2000/svg" id="Layer_1" data-name="Layer 1" viewBox="0 0 41.38 41.38"><defs><style>.cls-1{fill:#396886;}</style></defs><path class="cls-1" d="M27.17,24.35a6.9,6.9,0,0,1-2.71.29,7.6,7.6,0,0,1-6.13-4.06,7,7,0,0,1-.77-2.43,9.45,9.45,0,0,1-.09-1.07,7.53,7.53,0,0,1,.74-3.23l.13-.27a.4.4,0,0,0-.09-.44.41.41,0,0,0-.43-.12,8.47,8.47,0,0,0-4.5,3.3,8.12,8.12,0,0,0-1.17,2.47A7.34,7.34,0,0,0,11.84,21a8.14,8.14,0,0,0,1,4.08,8.49,8.49,0,0,0,4.79,4,7.72,7.72,0,0,0,1.9.38c.27,0,.53.05.8,0a8.29,8.29,0,0,0,3.22-.67,8.45,8.45,0,0,0,3-2.17A8,8,0,0,0,27.71,25a.42.42,0,0,0,0-.51A.44.44,0,0,0,27.17,24.35Z"></path><path class="cls-1" d="M28.45,21.11a1.08,1.08,0,0,0-.36-.07H25.55l.82-1,2.3-2.76a.64.64,0,0,0-.46-1.06H24.13a.63.63,0,0,0,0,1.25h2.76l-3.12,3.75a.63.63,0,0,0,.49,1H28.3a.6.6,0,0,0,.53-.53A.63.63,0,0,0,28.45,21.11Z"></path><path class="cls-1" d="M20.92,15.23a.82.82,0,0,0,.22,0h2.2a.46.46,0,0,0,.47-.33.43.43,0,0,0-.44-.53h-1.5s1.26-1.7,1.82-2.44a.48.48,0,0,0,.08-.53.44.44,0,0,0-.46-.23H21a.4.4,0,0,0-.42.38.41.41,0,0,0,.35.47.82.82,0,0,0,.22,0h1.33l-1.82,2.5A.4.4,0,0,0,20.92,15.23Z"></path><path class="cls-1" d="M25.44,12.63a.42.42,0,0,0,.41.23h1.5a.48.48,0,0,0,.41-.21.42.42,0,0,0-.35-.65H26.6l1.13-1.7a.44.44,0,0,0-.38-.7H25.8a.43.43,0,1,0,0,.86h.73l-1.09,1.68A.42.42,0,0,0,25.44,12.63Z"></path><path class="cls-1" d="M20.69,0A20.69,20.69,0,1,0,41.38,20.69,20.69,20.69,0,0,0,20.69,0Zm0,39.94A19.25,19.25,0,1,1,39.94,20.69,19.28,19.28,0,0,1,20.69,39.94Z"></path></svg> 