<?xml version="1.0" encoding="UTF-8"?> <svg xmlns="http://www.w3.org/2000/svg" id="Layer_1" data-name="Layer 1" viewBox="0 0 41.38 41.38"><defs><style>.cls-1{fill:#396886;}</style></defs><path class="cls-1" d="M20.69,41.38A20.69,20.69,0,1,0,0,20.69,20.69,20.69,0,0,0,20.69,41.38Zm0-39.94A19.25,19.25,0,1,1,1.44,20.69,19.27,19.27,0,0,1,20.69,1.44Z"></path><path class="cls-1" d="M29.93,22.55s-.06-.09-.12-.17c.08-.43.15-.9.24-1.37a11.25,11.25,0,0,0-.51-5.18.87.87,0,0,0-.6-.7c-.48-.09-.63-.41-.75-.81a10.5,10.5,0,0,0-2.4-3.88,1,1,0,0,0-1.06-.38c-.4.13-.64,0-.83-.4a4.68,4.68,0,0,0-.55-.77A10.9,10.9,0,0,0,21.43,7a1.15,1.15,0,0,0-.19-.14h0L21,6.79a1.1,1.1,0,0,0-.57,0l-.18,0-.13.08a9.58,9.58,0,0,0-2.05,2,3.74,3.74,0,0,0-.55.77.64.64,0,0,1-.84.4,1,1,0,0,0-1.06.38,10.35,10.35,0,0,0-2.39,3.88c-.13.4-.27.72-.76.81a.87.87,0,0,0-.6.7,11.11,11.11,0,0,0-.5,5.18c.08.47.16.94.23,1.37-.06.08-.08.14-.12.17a1.6,1.6,0,0,0-.78,1.89,9.74,9.74,0,0,0,1.09,3.45,9,9,0,0,0,5.39,4.55,16.84,16.84,0,0,0,1.73.28s.72,0,1.52,0H21c.8,0,1.51,0,1.51,0a16.41,16.41,0,0,0,1.73-.28,9,9,0,0,0,5.39-4.55,9.55,9.55,0,0,0,1.09-3.45A1.6,1.6,0,0,0,29.93,22.55ZM24.44,12.33c.21-.26.49-.28.67,0a7.06,7.06,0,0,1,1.59,3.52l-1.4.72-1.68-3.11C23.88,13.09,24.14,12.7,24.44,12.33ZM18.68,11.1a9,9,0,0,1,1.74-2.2h0l0-.05.07,0h0l.12,0h.08l.13,0h0l.06,0,0,.05h0a9,9,0,0,1,1.74,2.2c.2.42,0,.64-.26.87a1,1,0,0,1-.86-.28v0a1.65,1.65,0,0,0-.27-.21l-.15-.09a.9.9,0,0,0-.21-.08,1,1,0,0,0-.57,0l-.15,0a2.49,2.49,0,0,0-.37.23l-.12.09-.06.06h0a1,1,0,0,1-.79.22C18.72,11.74,18.47,11.52,18.68,11.1Zm-2.39,1.21c.18-.26.46-.24.67,0s.56.76.82,1.11l-1.67,3.11-1.4-.72A7.13,7.13,0,0,1,16.29,12.31Zm-1.9,16.21a7.63,7.63,0,0,1-1.93-4.35,6.88,6.88,0,0,1,4.16,1,1.31,1.31,0,0,1,.78,1.4A7.66,7.66,0,0,0,18,29.86c.12.34.31.66.47,1A6.09,6.09,0,0,1,14.39,28.52ZM18.65,22c-.22.39-.36.83-.55,1.23a5.18,5.18,0,0,1-.36.58l-.81-.39a8.1,8.1,0,0,0-2.71-.9c-.7-.1-.92-.28-1-1A26.9,26.9,0,0,1,13,18.66a7.63,7.63,0,0,1,.26-1.5,19.25,19.25,0,0,1,3.81,2.13,12.33,12.33,0,0,1,1.42,1.38A1,1,0,0,1,18.65,22Zm3,7.4c-.22.36-.33.79-.68,1v0a2.29,2.29,0,0,1-.29.18,1.67,1.67,0,0,1-.28-.18v0c-.35-.24-.47-.67-.69-1A4.74,4.74,0,0,1,19.14,27,8.63,8.63,0,0,1,20.09,23c.1-.21.21-.4.33-.6s.18-.35.28-.52l.29.52c.11.2.22.39.32.6a8.63,8.63,0,0,1,1,4.06A4.64,4.64,0,0,1,21.67,29.38Zm-.24-9.83h0l-.07.06h0a1.08,1.08,0,0,1-.37.21.91.91,0,0,1-.57,0,1,1,0,0,1-.37-.19h0L20,19.55h0l-1.81-1.62c-.42-.37-.46-.5-.2-1s.59-1.18.91-1.76a4.63,4.63,0,0,1,1.55-1.74l.07-.07.21-.09.21.09.08.07a4.69,4.69,0,0,1,1.54,1.74c.32.58.62,1.17.91,1.76s.22.65-.2,1Zm1.46,1.12a13.11,13.11,0,0,1,1.41-1.38,19.05,19.05,0,0,1,3.82-2.13,9.47,9.47,0,0,1,.26,1.5,24.48,24.48,0,0,1-.19,2.84c-.08.72-.31.9-1,1a8,8,0,0,0-2.7.9l-.82.39a5,5,0,0,1-.35-.58c-.2-.4-.34-.84-.56-1.23A1,1,0,0,1,22.89,20.67ZM27,28.52A6.12,6.12,0,0,1,23,30.86c.16-.34.35-.66.48-1A7.82,7.82,0,0,0,24,26.59a1.3,1.3,0,0,1,.77-1.4,6.93,6.93,0,0,1,4.17-1A7.77,7.77,0,0,1,27,28.52Z"></path></svg> 