<?xml version="1.0" encoding="UTF-8"?> <svg xmlns="http://www.w3.org/2000/svg" id="Layer_1" data-name="Layer 1" viewBox="0 0 41.38 41.38"><defs><style>.cls-1{fill:#396886;}.cls-2{fill:none;stroke:#396886;stroke-miterlimit:10;stroke-width:1.5px;}</style></defs><path class="cls-1" d="M20.69,0A20.69,20.69,0,1,0,41.38,20.69,20.69,20.69,0,0,0,20.69,0Zm0,39.94A19.25,19.25,0,1,1,39.94,20.69,19.28,19.28,0,0,1,20.69,39.94Z"></path><path class="cls-1" d="M25,16.19V8.11a1.24,1.24,0,0,0,.6-1.06,1.27,1.27,0,0,0-1.29-1.26H16.91a1.28,1.28,0,0,0-1.29,1.26,1.25,1.25,0,0,0,.6,1.06v8.17l-6.65,13a2.13,2.13,0,0,0,.08,2.09,2.29,2.29,0,0,0,2,1.09h18a2.24,2.24,0,0,0,1.91-1,2.06,2.06,0,0,0,.09-2Zm-1.43-2.05a2,2,0,0,1-1.44-.05l-.63-.34a7.46,7.46,0,0,0-3.62-1.17h-.21V7.24h5.91Zm6.78,16.57a.79.79,0,0,1-.68.36h-18a.87.87,0,0,1-.76-.4.67.67,0,0,1,0-.68l6.8-13.36V14h.16a6.12,6.12,0,0,1,3,1c.23.13.46.26.69.37a3.11,3.11,0,0,0,1.37.31,3,3,0,0,0,.71-.08v.94L30.36,30.1A.62.62,0,0,1,30.33,30.71Z"></path><ellipse class="cls-1" cx="24.25" cy="22.85" rx="1.43" ry="1.33"></ellipse><ellipse class="cls-1" cx="20.61" cy="25.43" rx="2.13" ry="1.98"></ellipse><ellipse class="cls-1" cx="21.55" cy="20.74" rx="0.96" ry="0.89"></ellipse><line class="cls-2" x1="5.01" y1="8.09" x2="36.47" y2="33.75"></line></svg> 