<?xml version="1.0" encoding="UTF-8"?> <!-- Generator: Adobe Illustrator 25.2.3, SVG Export Plug-In . SVG Version: 6.00 Build 0) --> <svg xmlns="http://www.w3.org/2000/svg" xmlns:xlink="http://www.w3.org/1999/xlink" version="1.1" id="Layer_1" x="0px" y="0px" viewBox="0 0 41.4 41.4" style="enable-background:new 0 0 41.4 41.4;" xml:space="preserve"> <style type="text/css"> .st0{fill:#396886;} .st1{fill:none;stroke:#396886;stroke-width:1.5;stroke-miterlimit:10;} </style> <path class="st0" d="M20.7,0C9.3,0,0,9.3,0,20.7s9.3,20.7,20.7,20.7s20.7-9.3,20.7-20.7S32.1,0,20.7,0L20.7,0z M20.7,39.9 c-10.6,0-19.2-8.6-19.3-19.2S10.1,1.4,20.7,1.4S40,10,40,20.6l0,0C39.9,31.3,31.3,39.9,20.7,39.9z"></path> <path class="st1" d="M6.9,20.5v-3.4c0-0.2,0-0.4,0.2-0.4s0.3,0,0.4,0.2c0.7,0.9,1.5,1.7,2.5,2.4c0.5,0.4,1.1,0.4,1.6,0 c1.9-1.5,4-2.6,6.3-3.4c4.5-1.5,9.5-0.8,13.5,1.9c1,0.6,1.9,1.4,2.8,2.2c0.4,0.4,0.4,0.7,0,1.1c-2.6,2.6-6.1,4.3-9.8,4.8 c-2.9,0.3-5.9-0.2-8.6-1.5c-1.5-0.7-2.8-1.5-4.1-2.5c-0.5-0.5-1.3-0.5-1.8,0l0,0c-0.9,0.6-1.7,1.4-2.3,2.3c-0.1,0.1-0.2,0.3-0.4,0.2 S6.9,24.2,6.9,24V20.5z"></path> <g> <path class="st0" d="M28.1,18.4c-0.1,0-0.1,0-0.2,0c-0.4,0.1-0.6,0.4-0.7,0.7c-0.1,0.5,0.2,1.1,0.7,1.2c0.1,0,0.1,0,0.2,0 c0.4,0,0.9-0.3,1-0.7c0-0.1,0-0.3,0-0.4C29,18.8,28.5,18.4,28.1,18.4L28.1,18.4z"></path> </g> </svg> 