<?xml version="1.0" encoding="UTF-8"?> <!-- Generator: Adobe Illustrator 25.2.3, SVG Export Plug-In . SVG Version: 6.00 Build 0) --> <svg xmlns="http://www.w3.org/2000/svg" xmlns:xlink="http://www.w3.org/1999/xlink" version="1.1" id="Layer_1" x="0px" y="0px" viewBox="0 0 41.4 41.4" style="enable-background:new 0 0 41.4 41.4;" xml:space="preserve"> <style type="text/css"> .st0{fill:none;stroke:#396886;stroke-width:1.5;stroke-miterlimit:10;} .st1{fill:#396886;} </style> <path class="st0" d="M13.6,21.7c-0.8,2.7-0.2,5.7,1.6,7.9c1.3,1.5,3.1,2.4,5.1,2.6c0.2,0,0.4,0,0.7,0c0.9,0,1.7-0.2,2.6-0.5 c3.7-1.7,5.2-6.1,4.1-10c-1.4-5-5.1-10.6-6.5-12.5C21,8.9,20.6,8.8,20.3,9c-0.1,0-0.1,0.1-0.1,0.1C18.8,11.1,15,16.7,13.6,21.7z"></path> <path class="st1" d="M25.6,23.8c-0.2,0-0.4,0.2-0.4,0.4c0,0.4-0.1,0.7-0.2,1.1c-0.1,0.3-0.1,0.6-0.3,0.8c-0.1,0.2-0.2,0.5-0.3,0.7 c-0.2,0.3-0.4,0.5-0.6,0.8c-1,1.1-2.4,1.8-3.8,1.8c-0.2,0-0.4,0.2-0.3,0.5c0,0.2,0.2,0.3,0.3,0.3c2,0,3.8-1,4.9-2.6 c0.2-0.3,0.4-0.6,0.5-0.9c0.1-0.2,0.2-0.5,0.3-0.8c0.2-0.6,0.3-1.2,0.3-1.8C26,24,25.8,23.8,25.6,23.8 C25.6,23.8,25.6,23.8,25.6,23.8z"></path> <path class="st1" d="M20.7,0C9.3,0,0,9.3,0,20.7s9.3,20.7,20.7,20.7s20.7-9.3,20.7-20.7S32.1,0,20.7,0C20.7,0,20.7,0,20.7,0z M20.7,39.9c-10.6,0-19.2-8.6-19.3-19.2S10.1,1.4,20.7,1.4s19.3,8.6,19.3,19.2c0,0,0,0,0,0C39.9,31.3,31.3,39.9,20.7,39.9z"></path> </svg> 