<svg xmlns="http://www.w3.org/2000/svg" width="76.532" height="95.786" viewBox="0 0 76.532 95.786"><g transform="translate(0)"><path d="M361.788,509.744h-62.8a6.872,6.872,0,0,1-6.867-6.867V420.831a6.877,6.877,0,0,1,6.867-6.873h62.8a6.877,6.877,0,0,1,6.867,6.873v82.046A6.872,6.872,0,0,1,361.788,509.744Zm-62.8-90.817a1.908,1.908,0,0,0-1.9,1.9v82.046a1.912,1.912,0,0,0,1.9,1.9h62.8a1.912,1.912,0,0,0,1.9-1.9V420.831a1.908,1.908,0,0,0-1.9-1.9Z" transform="translate(-292.123 -413.958)" fill="#5397c3"/><g transform="translate(11.443 53.134)"><path d="M345.3,430.437H296.614a2.484,2.484,0,0,1,0-4.968H345.3a2.484,2.484,0,0,1,0,4.968Z" transform="translate(-294.136 -413.167)" fill="#5397c3"/><path d="M345.3,432.6H296.614a2.484,2.484,0,0,1,0-4.969H345.3a2.484,2.484,0,0,1,0,4.969Z" transform="translate(-294.136 -403.03)" fill="#5397c3"/><path d="M345.3,428.273H296.614a2.484,2.484,0,0,1,0-4.968H345.3a2.484,2.484,0,0,1,0,4.968Z" transform="translate(-294.136 -423.305)" fill="#5397c3"/></g><path d="M320.114,447.1H299.228a2.657,2.657,0,0,1-2.3-1.268,2.444,2.444,0,0,1-.1-2.416l7.708-15.138v-9.482a1.439,1.439,0,0,1-.693-1.228,1.479,1.479,0,0,1,1.5-1.455H313.9a1.479,1.479,0,0,1,1.5,1.455,1.462,1.462,0,0,1-.694,1.234v9.374l7.725,15.377a2.382,2.382,0,0,1-.1,2.33A2.578,2.578,0,0,1,320.114,447.1Z" transform="translate(-271.357 -403.877)" fill="#5397c3"/><path d="M308.47,433.273h.034l.114.011-2.046-3.843v-11.4a.875.875,0,0,0,.449-.756.931.931,0,0,0-.972-.887h-5.543a.935.935,0,0,0-.972.887.873.873,0,0,0,.449.75V429.5l-2.081,3.866.028-.006" transform="translate(-265.046 -402.542)" fill="#5397c3"/><line x2="0.032" transform="translate(39.072 30.915)" fill="#f0eef1"/></g></svg>