<svg xmlns="http://www.w3.org/2000/svg" width="101.752" height="95.786" viewBox="0 0 101.752 95.786"><path d="M216.573,390.626a3.105,3.105,0,0,0-5.1-3.548,28.53,28.53,0,0,0,3.221,36.5,3.049,3.049,0,0,0,2.2.9,3.116,3.116,0,0,0,2.2-.9,3.052,3.052,0,0,0,0-4.363,22.206,22.206,0,0,1-6.361-18.676A21.573,21.573,0,0,1,216.573,390.626Z" transform="translate(-193.371 -371.91)" fill="#5397c3"/><path d="M241.694,464.353a3.008,3.008,0,0,0,2.691-1.59,3.085,3.085,0,0,0-1.223-4.2C219.634,445.555,209.48,431.2,209.4,410.649a22.3,22.3,0,0,1,41.389-11.377,3.024,3.024,0,0,0,2.61,1.468h0a2.976,2.976,0,0,0,2.61-1.468l.938-1.509c3.67-6.321,9.419-9.256,18.105-9.256A22.38,22.38,0,0,1,297.4,410.853a3.1,3.1,0,1,0,6.2,0,28.532,28.532,0,0,0-28.5-28.5c-9.827,0-17.045,3.262-21.857,9.827a28.538,28.538,0,0,0-50.074,17.9v.938c.326,29.033,19.9,43.55,36.944,53.01A4.62,4.62,0,0,0,241.694,464.353Z" transform="translate(-203.16 -382.35)" fill="#5397c3"/><path d="M266.788,392.68c-45.059-.734-50.768,28.544-51.3,39.758a174.51,174.51,0,0,0,28.1-21.612,3.668,3.668,0,0,1,5.179.122,3.631,3.631,0,0,1,1.019,2.61,3.752,3.752,0,0,1-1.142,2.569,185.287,185.287,0,0,1-26.913,21.082C272.293,439.533,266.788,392.68,266.788,392.68Z" transform="translate(-165.212 -350.598)" fill="#5397c3"/><path d="M211.5,413.489a1.5,1.5,0,0,0,1.427.938,1.635,1.635,0,0,0,.612-.122,141.581,141.581,0,0,0,17.167-9.256c-.856-.082-1.672-.122-2.569-.2a16.053,16.053,0,0,1-.082-1.794,149.1,149.1,0,0,1-15.74,8.441A1.5,1.5,0,0,0,211.5,413.489Z" transform="translate(-177.859 -318.641)" fill="#5397c3"/><path d="M218.151,422.43a181.176,181.176,0,0,0,29.074-22.346,1.557,1.557,0,0,0-2.161-2.243,175.367,175.367,0,0,1-29.6,22.591,16.058,16.058,0,0,0,.082,1.794C216.479,422.308,217.295,422.348,218.151,422.43Z" transform="translate(-165.304 -336.023)" fill="#5397c3"/></svg>