<svg xmlns="http://www.w3.org/2000/svg" width="95.107" height="90.817" viewBox="0 0 95.107 90.817"><g transform="translate(0)"><path d="M525.9,1117.434a3.679,3.679,0,0,1-1.255,2.522q-5.043,4.651-10.119,9.267-5.163,4.706-10.345,9.391a1.93,1.93,0,0,0-.546,2q.97,4.647,1.922,9.3c1.2,5.842,2.416,11.68,3.593,17.527a3.743,3.743,0,0,1-1.587,4.06,3.848,3.848,0,0,1-4.363.109q-7.624-4.315-15.248-8.628c-2.721-1.542-5.452-3.069-8.146-4.658a2.448,2.448,0,0,0-2.789-.015c-6.71,3.851-13.461,7.629-20.2,11.434-1.05.593-2.1,1.184-3.132,1.807a3.967,3.967,0,0,1-6.026-4.321q2.464-12,4.926-24c.186-.906.369-1.813.578-2.714a1.807,1.807,0,0,0-.608-1.887q-5.852-5.326-11.687-10.669-4.47-4.093-8.92-8.208a3.875,3.875,0,0,1,2.1-6.534c3.417-.439,6.844-.8,10.268-1.19q7.274-.828,14.549-1.651c.974-.11,1.948-.231,2.925-.31a1.719,1.719,0,0,0,1.527-1.131q1.9-4.211,3.814-8.416,2.656-5.853,5.311-11.706c.775-1.709,1.521-3.433,2.328-5.127a3.74,3.74,0,0,1,3.627-2.268,3.655,3.655,0,0,1,3.483,2.228c1.685,3.634,3.3,7.3,4.954,10.948q2.132,4.709,4.282,9.41c.707,1.555,1.44,3.1,2.1,4.675a2.11,2.11,0,0,0,1.882,1.421q11.635,1.277,23.264,2.6c1.479.166,2.966.29,4.428.555A4.006,4.006,0,0,1,525.9,1117.434Z" transform="translate(-430.788 -1081.414)" fill="#5397c3"/></g></svg>