<?xml version="1.0" encoding="utf-8"?>
<!-- Generator: Adobe Illustrator 25.4.1, SVG Export Plug-In . SVG Version: 6.00 Build 0)  -->
<svg version="1.1" id="Layer_1" xmlns="http://www.w3.org/2000/svg" xmlns:xlink="http://www.w3.org/1999/xlink" x="0px"
     y="0px"
     viewBox="0 0 692.9 655.9" style="enable-background:new 0 0 692.9 655.9;" xml:space="preserve">
<style type="text/css">
    @font-face {
        font-family: 'GothamBook';
        src: url('../../../typographies/woff2/GothamSSm-Book_Web.woff2') format('woff2'),
        url('../../../typographies/woff/GothamSSm-Book_Web.woff') format('woff');
        font-weight: 400;
        font-style: normal;
    }
	.st0{fill:#FBD961;}
	.st1{fill:#ACC8DE;}
	.st2{fill:#333333;}
	.st3{font-family:'GothamBook';}
	.st4{font-size:17px;}
	.st5{letter-spacing:1;}
	.st6{enable-background:new    ;}
	.st7{font-size:10px;}
	.st8{fill:none;stroke:#45748E;stroke-width:4.9121;stroke-miterlimit:10;}
	.st9{fill:none;stroke:#45748E;stroke-width:5.1766;stroke-miterlimit:10;}
	.st10{fill:none;stroke:#45748E;stroke-width:4.2984;stroke-miterlimit:10;}
	.st11{fill:#FFFFFF;}
	.st12{fill:none;stroke:#CC7B41;stroke-width:3;stroke-miterlimit:10;}
</style>
    <rect x="488.5" y="429.3" class="st0" width="93.8" height="82.5"/>
    <rect x="288.5" y="201.9" class="st1" width="94.1" height="261.1"/>
    <path class="st0" d="M538.4,407.4l-4.5-9.1l-4.3,9.1c-0.4,0.9-0.9,1.8-0.9,2.9c0,2.9,2.4,5.3,5.3,5.3s5.3-2.4,5.3-5.3
	C539.3,409.3,538.8,408.2,538.4,407.4z"/>
    <text transform="matrix(0 1 -1 0 204.9219 229.8027)" class="st2 st3 st4 st5">COMPRESSION CHAMBER </text>
    <g>
	<text transform="matrix(1 0 0 1 382.9324 597.9711)" class="st2 st3 st4 st5">trimming</text>
</g>
    <g>
	<text transform="matrix(1 0 0 1 553.6536 595.2467)" class="st6"><tspan x="0" y="0" class="st2 st3 st4 st5">PLANT</tspan>
        <tspan x="-40.2" y="20.4" class="st2 st3 st4 st5">EXTRACTS</tspan></text>
</g>
    <g>
	<text transform="matrix(1 0 0 1 48.271 591.9774)" class="st6"><tspan x="0" y="0" class="st2 st3 st4 st5">supercritical</tspan>
        <tspan x="0" y="20.4" class="st2 st3 st4 st5">c0</tspan>
        <tspan x="28.1" y="20.4" class="st2 st3 st7 st5">2</tspan></text>
</g>
    <g>
	<text transform="matrix(0 1 -1 0 405.8984 209.4642)" class="st2 st3 st4 st5">extraction VESSEL</text>
</g>
    <g>
	<text transform="matrix(0 1 -1 0 602.668 241.7199)" class="st2 st3 st4 st5">separator</text>
</g>
    <path class="st8" d="M190.4,502H80.7V251.7c0-30.3,24.6-54.9,54.9-54.9h0c30.3,0,54.9,24.6,54.9,54.9V502z"/>
    <rect x="280.5" y="163.1" class="st9" width="109.7" height="338.9"/>
    <rect x="480.6" y="421.4" transform="matrix(-1 1.781940e-11 -1.781940e-11 -1 1071.0031 941.2531)" class="st8"
          width="109.7" height="98.5"/>
    <line class="st8" x1="279.1" y1="193.8" x2="391.6" y2="193.8"/>
    <line class="st8" x1="279.1" y1="471.3" x2="391.6" y2="471.3"/>
    <rect x="119.2" y="138.4" class="st10" width="32.7" height="58.4"/>
    <rect x="71.1" y="467.1" class="st11" width="17.1" height="13.9"/>
    <rect x="382.8" y="435.5" class="st11" width="17.1" height="13.9"/>
    <rect x="583.9" y="464.5" class="st11" width="17.1" height="13.9"/>
    <path class="st10" d="M134.3,137.8V77.4c0-11.5,9.3-20.8,20.8-20.8h385.1c11.5,0,20.8,9.3,20.8,20.8v125.7"/>
    <path class="st10" d="M134.7,504v24.6c0,9.9,8,17.9,17.9,17.9h164.2c9.9,0,17.9-8,17.9-17.9v-26.5"/>
    <path class="st10" d="M335.2,162.4v-36.7c0-13.3,10.8-24.1,24.1-24.1h125.1c13.3,0,24.1,10.8,24.1,24.1v78.5"/>
    <g>
	<circle class="st11" cx="294.2" cy="236.2" r="2.3"/>
        <circle class="st11" cx="314.7" cy="236.2" r="2.3"/>
        <circle class="st11" cx="335.1" cy="236.2" r="2.3"/>
        <circle class="st11" cx="355.6" cy="236.2" r="2.3"/>
        <circle class="st11" cx="376.1" cy="236.2" r="2.3"/>
        <circle class="st11" cx="304.3" cy="249.7" r="2.3"/>
        <circle class="st11" cx="324.9" cy="249.7" r="2.3"/>
        <circle class="st11" cx="345.3" cy="249.7" r="2.3"/>
        <ellipse class="st11" cx="365.8" cy="249.7" rx="2.3" ry="2.3"/>
        <circle class="st11" cx="294.2" cy="208.4" r="2.3"/>
        <circle class="st11" cx="314.7" cy="208.4" r="2.3"/>
        <circle class="st11" cx="335.1" cy="208.4" r="2.3"/>
        <circle class="st11" cx="355.6" cy="208.4" r="2.3"/>
        <circle class="st11" cx="376.1" cy="208.4" r="2.3"/>
        <circle class="st11" cx="304.3" cy="221.9" r="2.3"/>
        <circle class="st11" cx="324.9" cy="221.9" r="2.3"/>
        <circle class="st11" cx="345.3" cy="221.9" r="2.3"/>
        <ellipse class="st11" cx="365.8" cy="221.9" rx="2.3" ry="2.3"/>
        <circle class="st11" cx="294.2" cy="263.6" r="2.3"/>
        <circle class="st11" cx="314.7" cy="263.6" r="2.3"/>
        <circle class="st11" cx="335.1" cy="263.6" r="2.3"/>
        <circle class="st11" cx="355.6" cy="263.6" r="2.3"/>
        <circle class="st11" cx="376.1" cy="263.6" r="2.3"/>
        <circle class="st11" cx="304.3" cy="277.2" r="2.3"/>
        <circle class="st11" cx="324.9" cy="277.2" r="2.3"/>
        <circle class="st11" cx="345.3" cy="277.2" r="2.3"/>
        <ellipse class="st11" cx="365.8" cy="277.3" rx="2.3" ry="2.3"/>
        <circle class="st11" cx="294.2" cy="291.1" r="2.3"/>
        <circle class="st11" cx="314.7" cy="291.1" r="2.3"/>
        <circle class="st11" cx="335.1" cy="291.1" r="2.3"/>
        <circle class="st11" cx="355.6" cy="291.1" r="2.3"/>
        <circle class="st11" cx="376.1" cy="291.1" r="2.3"/>
        <circle class="st11" cx="304.3" cy="304.7" r="2.3"/>
        <circle class="st11" cx="324.9" cy="304.7" r="2.3"/>
        <circle class="st11" cx="345.3" cy="304.7" r="2.3"/>
        <ellipse class="st11" cx="365.8" cy="304.7" rx="2.3" ry="2.3"/>
        <circle class="st11" cx="294.2" cy="318.6" r="2.3"/>
        <circle class="st11" cx="314.7" cy="318.6" r="2.3"/>
        <circle class="st11" cx="335.1" cy="318.6" r="2.3"/>
        <circle class="st11" cx="355.6" cy="318.6" r="2.3"/>
        <circle class="st11" cx="376.1" cy="318.6" r="2.3"/>
        <circle class="st11" cx="304.3" cy="332.2" r="2.3"/>
        <circle class="st11" cx="324.9" cy="332.2" r="2.3"/>
        <circle class="st11" cx="345.3" cy="332.2" r="2.3"/>
        <ellipse class="st11" cx="365.8" cy="332.2" rx="2.3" ry="2.3"/>
        <circle class="st11" cx="294.2" cy="346.1" r="2.3"/>
        <circle class="st11" cx="314.7" cy="346.1" r="2.3"/>
        <circle class="st11" cx="335.1" cy="346.1" r="2.3"/>
        <circle class="st11" cx="355.6" cy="346.1" r="2.3"/>
        <circle class="st11" cx="376.1" cy="346.1" r="2.3"/>
        <circle class="st11" cx="304.3" cy="359.6" r="2.3"/>
        <circle class="st11" cx="324.9" cy="359.6" r="2.3"/>
        <circle class="st11" cx="345.3" cy="359.6" r="2.3"/>
        <ellipse class="st11" cx="365.8" cy="359.7" rx="2.3" ry="2.3"/>
        <circle class="st11" cx="294.2" cy="373.5" r="2.3"/>
        <circle class="st11" cx="314.7" cy="373.5" r="2.3"/>
        <circle class="st11" cx="335.1" cy="373.5" r="2.3"/>
        <circle class="st11" cx="355.6" cy="373.5" r="2.3"/>
        <circle class="st11" cx="376.1" cy="373.5" r="2.3"/>
        <circle class="st11" cx="304.3" cy="387.1" r="2.3"/>
        <circle class="st11" cx="324.9" cy="387.1" r="2.3"/>
        <circle class="st11" cx="345.3" cy="387.1" r="2.3"/>
        <ellipse class="st11" cx="365.8" cy="387.1" rx="2.3" ry="2.3"/>
        <circle class="st11" cx="294.2" cy="401.1" r="2.3"/>
        <circle class="st11" cx="314.7" cy="401.1" r="2.3"/>
        <circle class="st11" cx="335.1" cy="401.1" r="2.3"/>
        <circle class="st11" cx="355.6" cy="401.1" r="2.3"/>
        <circle class="st11" cx="376.1" cy="401.1" r="2.3"/>
        <circle class="st11" cx="304.3" cy="414.6" r="2.3"/>
        <circle class="st11" cx="324.9" cy="414.6" r="2.3"/>
        <circle class="st11" cx="345.3" cy="414.6" r="2.3"/>

        <ellipse transform="matrix(0.9239 -0.3827 0.3827 0.9239 -130.815 171.56)" class="st11" cx="365.8" cy="414.6"
                 rx="2.3" ry="2.3"/>
        <circle class="st11" cx="294.2" cy="428" r="2.3"/>
        <circle class="st11" cx="314.7" cy="428" r="2.3"/>
        <circle class="st11" cx="335.1" cy="428" r="2.3"/>
        <circle class="st11" cx="355.6" cy="428" r="2.3"/>
        <circle class="st11" cx="376.1" cy="428" r="2.3"/>
        <circle class="st11" cx="304.3" cy="441.6" r="2.3"/>
        <circle class="st11" cx="324.9" cy="441.6" r="2.3"/>
        <circle class="st11" cx="345.3" cy="441.6" r="2.3"/>

        <ellipse transform="matrix(0.9239 -0.3827 0.3827 0.9239 -141.1367 173.6131)" class="st11" cx="365.8" cy="441.6"
                 rx="2.3" ry="2.3"/>
        <circle class="st11" cx="294.2" cy="455" r="2.3"/>
        <circle class="st11" cx="314.7" cy="455" r="2.3"/>
        <circle class="st11" cx="335.1" cy="455" r="2.3"/>
        <circle class="st11" cx="355.6" cy="455" r="2.3"/>
        <circle class="st11" cx="376.1" cy="455" r="2.3"/>
</g>
    <g>
	<path class="st1"
          d="M182.8,494V352c-9.4-3.1-19.2-4.6-32.4-2c-27.2,5.3-20.4,8.7-47.1,10.2c-5.5,0.3-10.5,0-15-0.6V494H182.8z"/>
</g>
    <g>
	<path class="st8" d="M545.3,376h45V251.7c0-30.3-24.6-54.9-54.9-54.9h0c-30.3,0-54.9,24.6-54.9,54.9V376h42.6v16.2h22.2
		C545.4,392.2,545.3,376.4,545.3,376z"/>
</g>
    <path class="st1" d="M494.6,340.5c26.7-1.5,19.9-4.9,47.1-10.2c17.2-3.4,28.5,0.2,40.8,5.2v-8.9v-48.4c-24.3-1.5-18.6-4.9-45-10.1
	c-21-4.1-33.3,2.2-49.3,8.7v49.8v14C490.2,340.7,492.4,340.7,494.6,340.5z"/>
    <path class="st0" d="M488.2,368.1h42v16.6h7.6v-16.6h44.7v-18.3v-14.3c-12.3-4.9-23.6-8.6-40.8-5.2c-27.2,5.3-20.4,8.7-47.1,10.2
	c-2.2,0.1-4.4,0.1-6.4,0.1v9.2V368.1z"/>
    <g>
	<polyline class="st12" points="539.2,471.5 615.2,471.5 615.2,570.9 	"/>
        <circle class="st12" cx="535.5" cy="472" r="5.2"/>
</g>
    <g>
	<polyline class="st12" points="338.2,442.5 434.4,442.5 434.4,570.9 	"/>
        <circle class="st12" cx="334.5" cy="443" r="5.2"/>
</g>
    <g>
	<polyline class="st12" points="54.8,570.5 54.8,474.2 131,474.2 	"/>
        <circle class="st12" cx="134.7" cy="474.7" r="5.2"/>
</g>
</svg>
