<?xml version="1.0" encoding="utf-8"?>
<!-- Generator: Adobe Illustrator 25.4.1, SVG Export Plug-In . SVG Version: 6.00 Build 0)  -->
<svg version="1.1" id="Layer_1" xmlns="http://www.w3.org/2000/svg" xmlns:xlink="http://www.w3.org/1999/xlink" x="0px"
     y="0px"
     viewBox="0 0 931.2 580" style="enable-background:new 0 0 931.2 580;" xml:space="preserve">
    <style type="text/css">
    @font-face {
        font-family: 'GothamBook';
        src: url('../../../typographies/woff2/GothamSSm-Book_Web.woff2') format('woff2'),
        url('../../../typographies/woff/GothamSSm-Book_Web.woff') format('woff');
        font-weight: 400;
        font-style: normal;
    }
	.st0{fill:#FBD961;}
	.st1{fill:#ACC8DE;}
	.st2{fill:#333333;}
	.st3{font-family:'GothamBook';}
	.st4{font-size:17px;}
	.st5{letter-spacing:1;}
	.st6{enable-background:new    ;}
	.st7{font-size:10px;}
	.st8{display:none;fill:#FBD961;}
	.st9{display:none;fill:#426683;}
	.st10{display:none;fill:#ACC8DE;}
	.st11{fill:none;stroke:#45748E;stroke-width:4.9121;stroke-miterlimit:10;}
	.st12{fill:none;stroke:#45748E;stroke-width:5.1766;stroke-miterlimit:10;}
	.st13{fill:none;stroke:#45748E;stroke-width:4.2984;stroke-miterlimit:10;}
	.st14{fill:#FFFFFF;}
	.st15{fill:none;stroke:#CC7B41;stroke-width:3;stroke-miterlimit:10;}
</style>
    <rect x="659.5" y="401.6" class="st0" width="93.8" height="82.5"/>
    <rect x="416.5" y="174.3" class="st1" width="94.1" height="261.1"/>
    <path class="st0" d="M709.5,379.8l-4.5-9.1l-4.3,9.1c-0.4,0.9-0.9,1.8-0.9,2.9c0,2.9,2.4,5.3,5.3,5.3s5.3-2.4,5.3-5.3
	C710.4,381.7,709.9,380.6,709.5,379.8z"/>
    <text font-family="GothamBook" transform="matrix(0 1 -1 0 308.4113 202.1614)" class="st2 st3 st4 st5">COMPRESSION CHAMBER </text>
    <g>
	<text font-family="GothamBook" transform="matrix(1 0 0 1 532.8278 508.2138)" class="st2 st3 st4 st5">trimming</text>
</g>
    <g>
	<text font-family="GothamBook" transform="matrix(1 0 0 1 782.1195 508.2265)" class="st6"><tspan x="0" y="0" class="st2 st3 st4 st5">PLANT </tspan>
        <tspan x="-16.7" y="20.4" class="st2 st3 st4 st5">EXTRACTS</tspan></text>
</g>
    <g>
	<text font-family="GothamBook" transform="matrix(1 0 0 1 45.6035 508.2265)" class="st6"><tspan x="0" y="0" class="st2 st3 st4 st5">supercritical</tspan>
        <tspan x="63.7" y="20.4" class="st2 st3 st4 st5">c0</tspan>
        <tspan x="91.8" y="20.4" class="st2 st3 st7 st5">2</tspan></text>
</g>
    <g>
	<text font-family="GothamBook" transform="matrix(0 1 -1 0 533.9094 181.8228)" class="st2 st3 st4 st5">extraction VESSEL</text>
</g>
    <g>
	<text font-family="GothamBook" transform="matrix(0 1 -1 0 773.7375 214.0786)"
          class="st2 st3 st4 st5">separator</text>
</g>
    <path class="st8"
          d="M-211.3,499.9h-28.4c-5.5,0-9.9-4.4-9.9-9.9v-28.6h48.1V490C-201.5,495.5-205.9,499.9-211.3,499.9z"/>
    <path class="st9" d="M-744.2,396.5L-744.2,396.5c-16,0-28.9-12.9-28.9-28.9V203.8h57.8v163.8C-715.3,383.5-728.2,396.5-744.2,396.5z
	"/>
    <path class="st10"
          d="M-317.6,339c13.8-1,20.3-6.9,28.7-10.1v-110h-41.5v114.6v4.7C-325.8,338.9-321.4,339.3-317.6,339z"/>
    <path class="st11" d="M293.9,474.3H184.1V224.1c0-30.3,24.6-54.9,54.9-54.9h0c30.3,0,54.9,24.6,54.9,54.9V474.3z"/>
    <rect x="408.5" y="135.4" class="st12" width="109.7" height="338.9"/>
    <rect x="651.7" y="393.7" transform="matrix(-1 1.781940e-11 -1.781940e-11 -1 1413.1403 885.9704)" class="st11"
          width="109.7" height="98.5"/>
    <line class="st11" x1="407.2" y1="166.2" x2="519.6" y2="166.2"/>
    <line class="st11" x1="407.2" y1="443.7" x2="519.6" y2="443.7"/>
    <rect x="222.7" y="110.8" class="st13" width="32.7" height="58.4"/>
    <rect x="174.6" y="439.4" class="st14" width="17.1" height="13.9"/>
    <rect x="510.8" y="407.8" class="st14" width="17.1" height="13.9"/>
    <rect x="755" y="436.8" class="st14" width="17.1" height="13.9"/>
    <path class="st13" d="M238.4,108.6V79.2c0-11.5,9.3-20.8,20.8-20.8h452.1c11.5,0,20.8,9.3,20.8,20.8V175"/>
    <path class="st13" d="M238.7,476.4V501c0,9.9,8,17.9,17.9,17.9h188.2c9.9,0,17.9-8,17.9-17.9v-26.5"/>
    <path class="st13" d="M463.2,136.2v-17.7c0-13.3,10.8-24.1,24.1-24.1h168.1c13.3,0,24.1,10.8,24.1,24.1V176"/>
    <g>
	<circle class="st14" cx="422.2" cy="208.5" r="2.3"/>
        <circle class="st14" cx="442.7" cy="208.5" r="2.3"/>
        <circle class="st14" cx="463.2" cy="208.5" r="2.3"/>
        <circle class="st14" cx="483.6" cy="208.5" r="2.3"/>
        <circle class="st14" cx="504.1" cy="208.5" r="2.3"/>
        <circle class="st14" cx="432.4" cy="222.1" r="2.3"/>
        <circle class="st14" cx="452.9" cy="222.1" r="2.3"/>
        <circle class="st14" cx="473.4" cy="222.1" r="2.3"/>
        <ellipse class="st14" cx="493.8" cy="222.1" rx="2.3" ry="2.3"/>
        <circle class="st14" cx="422.2" cy="180.7" r="2.3"/>
        <circle class="st14" cx="442.7" cy="180.7" r="2.3"/>
        <circle class="st14" cx="463.2" cy="180.7" r="2.3"/>
        <circle class="st14" cx="483.6" cy="180.7" r="2.3"/>
        <circle class="st14" cx="504.1" cy="180.7" r="2.3"/>
        <circle class="st14" cx="432.4" cy="194.3" r="2.3"/>
        <circle class="st14" cx="452.9" cy="194.3" r="2.3"/>
        <circle class="st14" cx="473.4" cy="194.3" r="2.3"/>
        <ellipse class="st14" cx="493.8" cy="194.3" rx="2.3" ry="2.3"/>
        <circle class="st14" cx="422.2" cy="236" r="2.3"/>
        <circle class="st14" cx="442.7" cy="236" r="2.3"/>
        <circle class="st14" cx="463.2" cy="236" r="2.3"/>
        <circle class="st14" cx="483.6" cy="236" r="2.3"/>
        <circle class="st14" cx="504.1" cy="236" r="2.3"/>
        <circle class="st14" cx="432.4" cy="249.6" r="2.3"/>
        <circle class="st14" cx="452.9" cy="249.6" r="2.3"/>
        <circle class="st14" cx="473.4" cy="249.6" r="2.3"/>
        <ellipse class="st14" cx="493.9" cy="249.6" rx="2.3" ry="2.3"/>
        <circle class="st14" cx="422.2" cy="263.5" r="2.3"/>
        <circle class="st14" cx="442.7" cy="263.5" r="2.3"/>
        <circle class="st14" cx="463.2" cy="263.5" r="2.3"/>
        <circle class="st14" cx="483.6" cy="263.5" r="2.3"/>
        <circle class="st14" cx="504.1" cy="263.5" r="2.3"/>
        <circle class="st14" cx="432.4" cy="277.1" r="2.3"/>
        <circle class="st14" cx="452.9" cy="277.1" r="2.3"/>
        <circle class="st14" cx="473.4" cy="277.1" r="2.3"/>
        <ellipse class="st14" cx="493.9" cy="277.1" rx="2.3" ry="2.3"/>
        <circle class="st14" cx="422.2" cy="290.9" r="2.3"/>
        <circle class="st14" cx="442.7" cy="290.9" r="2.3"/>
        <circle class="st14" cx="463.2" cy="290.9" r="2.3"/>
        <circle class="st14" cx="483.6" cy="290.9" r="2.3"/>
        <circle class="st14" cx="504.1" cy="290.9" r="2.3"/>
        <circle class="st14" cx="432.4" cy="304.5" r="2.3"/>
        <circle class="st14" cx="452.9" cy="304.5" r="2.3"/>
        <circle class="st14" cx="473.4" cy="304.5" r="2.3"/>
        <ellipse class="st14" cx="493.9" cy="304.6" rx="2.3" ry="2.3"/>
        <circle class="st14" cx="422.2" cy="318.4" r="2.3"/>
        <circle class="st14" cx="442.7" cy="318.4" r="2.3"/>
        <circle class="st14" cx="463.2" cy="318.4" r="2.3"/>
        <circle class="st14" cx="483.6" cy="318.4" r="2.3"/>
        <circle class="st14" cx="504.1" cy="318.4" r="2.3"/>
        <circle class="st14" cx="432.4" cy="332" r="2.3"/>
        <circle class="st14" cx="452.9" cy="332" r="2.3"/>
        <circle class="st14" cx="473.4" cy="332" r="2.3"/>
        <ellipse class="st14" cx="493.9" cy="332" rx="2.3" ry="2.3"/>
        <circle class="st14" cx="422.2" cy="345.9" r="2.3"/>
        <circle class="st14" cx="442.7" cy="345.9" r="2.3"/>
        <circle class="st14" cx="463.2" cy="345.9" r="2.3"/>
        <circle class="st14" cx="483.6" cy="345.9" r="2.3"/>
        <circle class="st14" cx="504.1" cy="345.9" r="2.3"/>
        <circle class="st14" cx="432.4" cy="359.5" r="2.3"/>
        <circle class="st14" cx="452.9" cy="359.5" r="2.3"/>
        <circle class="st14" cx="473.4" cy="359.5" r="2.3"/>
        <ellipse class="st14" cx="493.9" cy="359.5" rx="2.3" ry="2.3"/>
        <circle class="st14" cx="422.2" cy="373.4" r="2.3"/>
        <circle class="st14" cx="442.7" cy="373.4" r="2.3"/>
        <circle class="st14" cx="463.2" cy="373.4" r="2.3"/>
        <circle class="st14" cx="483.6" cy="373.4" r="2.3"/>
        <circle class="st14" cx="504.1" cy="373.4" r="2.3"/>
        <circle class="st14" cx="432.4" cy="386.9" r="2.3"/>
        <circle class="st14" cx="452.9" cy="386.9" r="2.3"/>
        <circle class="st14" cx="473.4" cy="386.9" r="2.3"/>

        <ellipse transform="matrix(0.9239 -0.3827 0.3827 0.9239 -110.4923 218.4442)" class="st14" cx="493.8" cy="387"
                 rx="2.3" ry="2.3"/>
        <circle class="st14" cx="422.2" cy="400.4" r="2.3"/>
        <circle class="st14" cx="442.7" cy="400.4" r="2.3"/>
        <circle class="st14" cx="463.2" cy="400.4" r="2.3"/>
        <circle class="st14" cx="483.6" cy="400.4" r="2.3"/>
        <circle class="st14" cx="504.1" cy="400.4" r="2.3"/>
        <circle class="st14" cx="432.4" cy="413.9" r="2.3"/>
        <circle class="st14" cx="452.9" cy="413.9" r="2.3"/>
        <circle class="st14" cx="473.4" cy="413.9" r="2.3"/>

        <ellipse transform="matrix(0.9239 -0.3827 0.3827 0.9239 -120.814 220.4974)" class="st14" cx="493.8" cy="413.9"
                 rx="2.3" ry="2.3"/>
        <circle class="st14" cx="422.2" cy="427.4" r="2.3"/>
        <circle class="st14" cx="442.7" cy="427.4" r="2.3"/>
        <circle class="st14" cx="463.2" cy="427.4" r="2.3"/>
        <circle class="st14" cx="483.6" cy="427.4" r="2.3"/>
        <circle class="st14" cx="504.1" cy="427.4" r="2.3"/>
</g>
    <g>
	<path class="st1" d="M286.3,466.4v-142c-9.4-3.1-19.2-4.6-32.4-2c-27.2,5.3-20.4,8.7-47.1,10.2c-5.5,0.3-10.5,0-15-0.6v134.5H286.3
		z"/>
</g>
    <g>
	<path class="st11" d="M716.4,348.3h45V224.1c0-30.3-24.6-54.9-54.9-54.9h0c-30.3,0-54.9,24.6-54.9,54.9v124.3h42.6v16.2h22.2
		C716.5,364.6,716.4,348.7,716.4,348.3z"/>
</g>
    <path class="st1" d="M665.6,312.9c26.7-1.5,19.9-4.9,47.1-10.2c17.2-3.4,28.5,0.2,40.8,5.2V299v-48.4c-24.3-1.5-18.6-4.9-45-10.1
	c-21-4.1-33.3,2.2-49.3,8.7V299v14C661.3,313,663.4,313,665.6,312.9z"/>
    <path class="st0" d="M659.2,340.4h42v16.6h7.6v-16.6h44.7v-18.3v-14.3c-12.3-4.9-23.6-8.6-40.8-5.2c-27.2,5.3-20.4,8.7-47.1,10.2
	c-2.2,0.1-4.4,0.1-6.4,0.1v9.2V340.4z"/>
    <g>
	<polyline class="st15" points="710.3,443.8 818.8,443.8 818.8,482.8 	"/>
        <circle class="st15" cx="706.6" cy="444.3" r="5.2"/>
</g>
    <g>
	<polyline class="st15" points="466.2,414.8 584.7,414.8 584.7,481.7 	"/>
        <circle class="st15" cx="462.5" cy="415.3" r="5.2"/>
</g>
    <g>
	<polyline class="st15" points="127,482.5 127,446.5 234.5,446.5 	"/>
        <circle class="st15" cx="238.2" cy="447" r="5.2"/>
</g>
</svg>
