<?xml version="1.0" encoding="utf-8"?>
<!-- Generator: Adobe Illustrator 25.3.1, SVG Export Plug-In . SVG Version: 6.00 Build 0)  -->
<svg version="1.1" id="Layer_1" xmlns="http://www.w3.org/2000/svg" xmlns:xlink="http://www.w3.org/1999/xlink" x="0px" y="0px"
	 viewBox="0 0 251.3 206.7" style="enable-background:new 0 0 251.3 206.7;" xml:space="preserve">
<style type="text/css">
	.st0{fill:#FFFFFF;}
</style>
<g>
	<g>
		<g>
			<g>
				<polygon class="st0" points="121.9,33.8 123.6,37.3 127.4,37.9 124.7,40.6 125.3,44.4 121.9,42.6 118.4,44.4 119.1,40.6 
					116.3,37.9 120.2,37.3 				"/>
				<polygon class="st0" points="85.9,46.1 87.6,49.6 91.5,50.1 88.7,52.8 89.4,56.7 85.9,54.9 82.5,56.7 83.1,52.8 80.4,50.1 
					84.2,49.6 				"/>
				<polygon class="st0" points="157.8,46.1 159.6,49.6 163.4,50.1 160.6,52.8 161.3,56.7 157.8,54.9 154.4,56.7 155.1,52.8 
					152.3,50.1 156.1,49.6 				"/>
			</g>
			<g>
				<polygon class="st0" points="121.8,175.1 120,171.6 116.2,171 119,168.3 118.3,164.5 121.7,166.3 125.2,164.5 124.5,168.3 
					127.3,171 123.5,171.6 				"/>
				<polygon class="st0" points="157.7,162.8 156,159.4 152.1,158.8 154.9,156.1 154.3,152.3 157.7,154.1 161.1,152.3 160.5,156.1 
					163.3,158.8 159.4,159.4 				"/>
				<polygon class="st0" points="85.8,162.8 84.1,159.4 80.2,158.8 83,156.1 82.4,152.3 85.8,154.1 89.2,152.3 88.6,156.1 
					91.4,158.8 87.5,159.4 				"/>
			</g>
		</g>
		<g>
			<path class="st0" d="M216.6,69.1H202c-5.8-13.9-15.3-26.3-27.3-35.5c-15.3-11.7-33.5-17.9-52.8-17.9s-37.6,6.2-52.8,17.9
				c-12,9.3-21.5,21.6-27.3,35.6H27.2v2.1l189.5-0.1L216.6,69.1z M71,36.1c14.7-11.3,32.3-17.3,50.9-17.3s36.2,5.9,50.9,17.2
				c11.3,8.6,20.2,20.1,25.8,33h-4.4c-12.7-27.3-40.3-46.3-72.3-46.2c-32,0-59.6,19-72.3,46.3h-4.4C50.8,56.3,59.7,44.8,71,36.1z
				 M192.4,69.1L51.3,69.2c12.5-26.4,39.4-44.7,70.5-44.7C152.9,24.5,179.8,42.7,192.4,69.1z"/>
			<path class="st0" d="M216.6,139.7v-2.1l-189.5,0.1v2.1h14.6c5.8,13.9,15.3,26.3,27.3,35.5c15.3,11.7,33.5,17.9,52.8,17.9
				s37.6-6.2,52.8-17.9c12-9.3,21.5-21.6,27.3-35.6L216.6,139.7z M192.4,139.7c-12.5,26.4-39.4,44.7-70.5,44.7s-58-18.3-70.6-44.7
				H192.4z M172.8,172.7C158.1,184,140.5,190,121.9,190s-36.2-5.9-50.9-17.2c-11.3-8.6-20.2-20.1-25.8-33h4.4
				C62.3,167,89.9,186,121.9,186s59.6-19,72.3-46.3h4.4C193,152.6,184.1,164.1,172.8,172.7z"/>
		</g>
	</g>
	<g>
		<g>
			<path class="st0" d="M46.1,129.6l-4.3-6.4h-3.5v6.4h-4.4v-20H43c4.7,0,7.5,2.5,7.5,6.6v0.1c0,3.2-1.7,5.3-4.3,6.2l4.9,7.1H46.1z
				 M46.2,116.5c0-1.9-1.3-2.9-3.5-2.9h-4.4v5.7h4.5C45,119.4,46.2,118.2,46.2,116.5L46.2,116.5z"/>
			<path class="st0" d="M56.8,129.6v-20h15.1v3.9H61.2v4.1h9.4v3.9h-9.4v4.2h10.9v3.9H56.8z"/>
			<path class="st0" d="M88.3,129.8h-3.9l-8.1-20.1h4.9l5.2,14.1l5.2-14.1h4.7L88.3,129.8z"/>
			<path class="st0" d="M101.8,129.6v-20h4.4v20H101.8z"/>
			<path class="st0" d="M113.4,129.6v-20h15.1v3.9h-10.7v4.1h9.4v3.9h-9.4v4.2h10.8v3.9H113.4z"/>
			<path class="st0" d="M156.6,129.7h-3.8l-4.5-13.1l-4.5,13.1H140l-6.8-20.1h4.7l4.1,13.5l4.5-13.6h3.8l4.5,13.6l4.1-13.5h4.6
				L156.6,129.7z"/>
			<path class="st0" d="M168.8,129.6v-20h15.1v3.9h-10.7v4.1h9.4v3.9h-9.4v4.2h10.9v3.9H168.8z"/>
			<path class="st0" d="M197.9,129.6h-7.8v-20h7.8c6.3,0,10.6,4.3,10.6,9.9v0.1C208.5,125.2,204.2,129.6,197.9,129.6z M203.9,119.6
				c0-3.5-2.4-6-6-6h-3.4v12h3.4C201.5,125.6,203.9,123.2,203.9,119.6L203.9,119.6z"/>
		</g>
		<g>
			<path class="st0" d="M50.9,99.5v-13L45.3,95h-0.1l-5.6-8.4v13h-4.3v-20H40l5.3,8.4l5.2-8.5h4.7v20H50.9z"/>
			<path class="st0" d="M60.8,99.5v-20h15.1v3.9H65.2v4.1h9.4v3.9h-9.4v4.2h10.9v3.9H60.8z"/>
			<path class="st0" d="M88.4,99.5h-7.8v-20h7.8c6.3,0,10.6,4.3,10.6,9.9v0.1C99.1,95.1,94.7,99.5,88.4,99.5z M94.5,89.5
				c0-3.5-2.4-6-6-6h-3.4v12h3.4C92,95.5,94.5,93.1,94.5,89.5L94.5,89.5z"/>
			<path class="st0" d="M103.9,99.5v-20h4.4v20H103.9z"/>
			<path class="st0" d="M123.4,99.8c-5.9,0-10.3-4.5-10.3-10.3v-0.1c0-5.7,4.3-10.3,10.4-10.3c3.8,0,6,1.3,7.9,3.1l-2.8,3.2
				c-1.5-1.4-3.1-2.3-5.1-2.3c-3.4,0-5.8,2.8-5.8,6.2v0.1c0,3.4,2.4,6.3,5.8,6.3c2.3,0,3.7-0.9,5.3-2.3l2.8,2.8
				C129.5,98.5,127.2,99.8,123.4,99.8z"/>
			<path class="st0" d="M150.7,99.5l-1.8-4.5h-8.5l-1.8,4.5h-4.5l8.6-20.1h4.1l8.6,20.1H150.7z M144.6,84.6l-2.7,6.5h5.3L144.6,84.6
				z"/>
			<path class="st0" d="M159.1,99.5v-20h4.4v16h10v4H159.1z"/>
			<path class="st0" d="M177.4,99.5v-20h4.4v16h10v4H177.4z"/>
			<path class="st0" d="M202.1,91.5v8h-4.4v-7.9L190,79.5h5.1l4.8,8l4.9-8h5L202.1,91.5z"/>
		</g>
	</g>
</g>
</svg>
