<?xml version="1.0" encoding="utf-8"?>
<!-- Generator: Adobe Illustrator 25.3.1, SVG Export Plug-In . SVG Version: 6.00 Build 0)  -->
<svg version="1.1" id="Layer_1" xmlns="http://www.w3.org/2000/svg" xmlns:xlink="http://www.w3.org/1999/xlink" x="0px" y="0px"
	 viewBox="0 0 189.6 177.5" style="enable-background:new 0 0 189.6 177.5;" xml:space="preserve">
<style type="text/css">
	.st0{fill:#D1982B;}
	.st1{fill:#223E6B;}
</style>
<g>
	<g>
		<g>
			<g>
				<polygon class="st0" points="94.8,18.1 96.5,21.6 100.3,22.2 97.6,24.9 98.2,28.7 94.8,26.9 91.3,28.7 92,24.9 89.2,22.2 
					93.1,21.6 				"/>
				<polygon class="st0" points="58.8,30.4 60.5,33.9 64.4,34.4 61.6,37.1 62.3,41 58.8,39.2 55.4,41 56,37.1 53.3,34.4 57.1,33.9 
									"/>
				<polygon class="st0" points="130.7,30.4 132.5,33.9 136.3,34.4 133.5,37.1 134.2,41 130.7,39.2 127.3,41 128,37.1 125.2,34.4 
					129,33.9 				"/>
			</g>
			<g>
				<polygon class="st0" points="94.7,159.4 92.9,155.9 89.1,155.3 91.9,152.6 91.2,148.8 94.6,150.6 98.1,148.8 97.4,152.6 
					100.2,155.3 96.4,155.9 				"/>
				<polygon class="st0" points="130.6,147.1 128.9,143.7 125,143.1 127.8,140.4 127.2,136.6 130.6,138.4 134,136.6 133.4,140.4 
					136.2,143.1 132.3,143.7 				"/>
				<polygon class="st0" points="58.7,147.1 57,143.7 53.1,143.1 55.9,140.4 55.3,136.6 58.7,138.4 62.1,136.6 61.5,140.4 
					64.3,143.1 60.4,143.7 				"/>
			</g>
		</g>
		<g>
			<path class="st1" d="M189.5,53.4h-14.6c-5.8-13.9-15.3-26.3-27.3-35.5C132.3,6.2,114.1,0,94.8,0S57.2,6.2,42,17.9
				c-12,9.3-21.5,21.6-27.3,35.6H0.1v2.1l189.5-0.1L189.5,53.4z M43.9,20.4C58.6,9.1,76.2,3.1,94.8,3.1S131,9,145.7,20.3
				c11.3,8.6,20.2,20.1,25.8,33h-4.4C154.4,26,126.8,7,94.8,7.1c-32,0-59.6,19-72.3,46.3h-4.4C23.7,40.6,32.6,29.1,43.9,20.4z
				 M165.3,53.4L24.2,53.5C36.7,27.1,63.6,8.8,94.7,8.8C125.8,8.8,152.7,27,165.3,53.4z"/>
			<path class="st1" d="M189.5,124v-2.1L0,122v2.1h14.6c5.8,13.9,15.3,26.3,27.3,35.5c15.3,11.7,33.5,17.9,52.8,17.9
				s37.6-6.2,52.8-17.9c12-9.3,21.5-21.6,27.3-35.6L189.5,124z M165.3,124c-12.5,26.4-39.4,44.7-70.5,44.7s-58-18.3-70.6-44.7H165.3
				z M145.7,157c-14.7,11.3-32.3,17.3-50.9,17.3s-36.2-5.9-50.9-17.2c-11.3-8.6-20.2-20.1-25.8-33h4.4
				c12.7,27.2,40.3,46.2,72.3,46.2s59.6-19,72.3-46.3h4.4C165.9,136.9,157,148.4,145.7,157z"/>
		</g>
	</g>
	<g>
		<g>
			<path class="st1" d="M19,113.9l-4.3-6.4h-3.5v6.4H6.8v-20h9.1c4.7,0,7.5,2.5,7.5,6.6v0.1c0,3.2-1.7,5.3-4.3,6.2l4.9,7.1H19z
				 M19.1,100.8c0-1.9-1.3-2.9-3.5-2.9h-4.4v5.7h4.5C17.9,103.7,19.1,102.5,19.1,100.8L19.1,100.8z"/>
			<path class="st1" d="M29.7,113.9v-20h15.1v3.9H34.1v4.1h9.4v3.9h-9.4v4.2H45v3.9H29.7z"/>
			<path class="st1" d="M61.2,114.1h-3.9L49.2,94h4.9l5.2,14.1L64.5,94h4.7L61.2,114.1z"/>
			<path class="st1" d="M74.7,113.9v-20h4.4v20H74.7z"/>
			<path class="st1" d="M86.3,113.9v-20h15.1v3.9H90.7v4.1h9.4v3.9h-9.4v4.2h10.8v3.9H86.3z"/>
			<path class="st1" d="M129.5,114h-3.8l-4.5-13.1l-4.5,13.1h-3.8l-6.8-20.1h4.7l4.1,13.5l4.5-13.6h3.8l4.5,13.6l4.1-13.5h4.6
				L129.5,114z"/>
			<path class="st1" d="M141.7,113.9v-20h15.1v3.9h-10.7v4.1h9.4v3.9h-9.4v4.2H157v3.9H141.7z"/>
			<path class="st1" d="M170.8,113.9H163v-20h7.8c6.3,0,10.6,4.3,10.6,9.9v0.1C181.4,109.5,177.1,113.9,170.8,113.9z M176.8,103.9
				c0-3.5-2.4-6-6-6h-3.4v12h3.4C174.4,109.9,176.8,107.5,176.8,103.9L176.8,103.9z"/>
		</g>
		<g>
			<path class="st1" d="M23.8,83.8v-13l-5.6,8.5h-0.1l-5.6-8.4v13H8.2v-20h4.7l5.3,8.4l5.2-8.5h4.7v20H23.8z"/>
			<path class="st1" d="M33.7,83.8v-20h15.1v3.9H38.1v4.1h9.4v3.9h-9.4v4.2H49v3.9H33.7z"/>
			<path class="st1" d="M61.3,83.8h-7.8v-20h7.8c6.3,0,10.6,4.3,10.6,9.9v0.1C72,79.4,67.6,83.8,61.3,83.8z M67.4,73.8
				c0-3.5-2.4-6-6-6H58v12h3.4C64.9,79.8,67.4,77.4,67.4,73.8L67.4,73.8z"/>
			<path class="st1" d="M76.8,83.8v-20h4.4v20H76.8z"/>
			<path class="st1" d="M96.3,84.1c-5.9,0-10.3-4.5-10.3-10.3v-0.1c0-5.7,4.3-10.3,10.4-10.3c3.8,0,6,1.3,7.9,3.1l-2.8,3.2
				c-1.5-1.4-3.1-2.3-5.1-2.3c-3.4,0-5.8,2.8-5.8,6.2v0.1c0,3.4,2.4,6.3,5.8,6.3c2.3,0,3.7-0.9,5.3-2.3l2.8,2.8
				C102.4,82.8,100.1,84.1,96.3,84.1z"/>
			<path class="st1" d="M123.6,83.8l-1.8-4.5h-8.5l-1.8,4.5H107l8.6-20.1h4.1l8.6,20.1H123.6z M117.5,68.9l-2.7,6.5h5.3L117.5,68.9z
				"/>
			<path class="st1" d="M132,83.8v-20h4.4v16h10v4H132z"/>
			<path class="st1" d="M150.3,83.8v-20h4.4v16h10v4H150.3z"/>
			<path class="st1" d="M175,75.8v8h-4.4v-7.9l-7.7-12.1h5.1l4.8,8l4.9-8h5L175,75.8z"/>
		</g>
	</g>
</g>
</svg>
